<svg xmlns="http://www.w3.org/2000/svg" width="16" height="12" viewBox="0 0 16 12"><g><g><path fill="#b11b1b" d="M14.64.969c-.587-.493-1.564-.394-2.052.295L7.116 8.355 3.111 4.22c-.489-.592-1.368-.69-1.954-.197C.473 4.514.375 5.4.863 6.09l4.886 4.924c.195.197.488.394.781.493h1.173c.39 0 .781-.197 1.074-.591l6.058-7.88c.586-.59.488-1.575-.196-2.068z"/><path fill="#fff" d="M14.64.969c-.587-.493-1.564-.394-2.052.295L7.116 8.355 3.111 4.22c-.489-.592-1.368-.69-1.954-.197C.473 4.514.375 5.4.863 6.09l4.886 4.924c.195.197.488.394.781.493h1.173c.39 0 .781-.197 1.074-.591l6.058-7.88c.586-.59.488-1.575-.196-2.068z"/></g></g></svg>