<svg xmlns="http://www.w3.org/2000/svg" width="16" height="16" viewBox="0 0 16 16"><g><g><path fill="#b11b1b" d="M15.559 13.948l-.685.693a4.515 4.515 0 0 1-3.196 1.358c-.351 0-.7-.042-1.04-.126a12.774 12.774 0 0 1-3.73-1.676 16.908 16.908 0 0 1-2.883-2.351 17.17 17.17 0 0 1-2.151-2.645 13.652 13.652 0 0 1-1.641-3.36 4.561 4.561 0 0 1 1.111-4.62l.799-.805a1.49 1.49 0 0 1 2.075 0l2.52 2.545a1.492 1.492 0 0 1 0 2.092l-1.48 1.495a.32.32 0 0 0-.032.412 16.477 16.477 0 0 0 1.677 1.979c.68.69 1.42 1.317 2.21 1.874.127.09.3.075.408-.035l1.444-1.459.002-.002a1.456 1.456 0 0 1 2.074.002l2.518 2.537a1.49 1.49 0 0 1 0 2.092zm-.636-1.431l-2.524-2.555-.002-.001a.566.566 0 0 0-.805.001l-1.43 1.468a1.205 1.205 0 0 1-1.55.135A17.197 17.197 0 0 1 6.28 9.587a17.476 17.476 0 0 1-1.77-2.088 1.227 1.227 0 0 1 .125-1.585l1.48-1.495v-.002a.58.58 0 0 0 0-.813l-2.52-2.545-.002-.002a.565.565 0 0 0-.805.002l-.798.806a3.649 3.649 0 0 0-.897 3.7 12.743 12.743 0 0 0 1.533 3.134c.596.9 1.28 1.737 2.04 2.5.827.84 1.742 1.585 2.73 2.223a11.837 11.837 0 0 0 3.461 1.567 3.56 3.56 0 0 0 3.384-.978l.687-.693-.005.014.001-.003a.578.578 0 0 0-.001-.812z"/></g></g></svg>