<svg xmlns="http://www.w3.org/2000/svg" width="14" height="19" viewBox="0 0 14 19"><g><g><path fill="#b11b1b" d="M14 7c0 1.3-.6 2.6-.6 2.7-.2.4-.5 1.1-.801 1.5l-4.8 7.3c-.2.3-.5.5-.8.5-.3 0-.6-.2-.8-.5l-4.8-7.3c-.3-.4-.6-1.1-.8-1.5C.6 9.6 0 8.3 0 7c0-3.9 3.1-7 7-7S14 3.1 14 7zm-.701 0c0-3.4-2.8-6.2-6.2-6.2C3.7.8.9 3.6.9 7c0 1.1.5 2.4.5 2.4.1.4.5 1 .7 1.4l4.8 7.3c.1.1.1.1.201 0l4.8-7.3.699-1.4c.1 0 .6-1.3.7-2.4zm-2.6 0c0 2-1.7 3.7-3.7 3.7S3.3 9 3.3 7 5 3.3 7 3.3 10.7 5 10.7 7zm-.8 0c0-1.6-1.3-2.9-2.9-2.9-1.6 0-2.9 1.3-2.9 2.9 0 1.6 1.3 2.9 2.9 2.9 1.6 0 2.9-1.3 2.9-2.9z"/></g></g></svg>