<svg xmlns="http://www.w3.org/2000/svg" width="30" height="30" viewBox="0 0 30 30"><g><g><path fill="#b11b1b" d="M30 15c0 8.271-6.729 15-15 15S0 23.27 0 15C0 6.728 6.729 0 15 0s15 6.728 15 15zm-1.154 0c0-7.634-6.211-13.846-13.846-13.846C7.366 1.154 1.154 7.366 1.154 15c0 7.635 6.212 13.846 13.846 13.846 7.635 0 13.846-6.211 13.846-13.846zm-6.873-6.386l-6.019 6.716 6.019 6.717a.576.576 0 1 1-.864.765l-5.93-6.617-5.93 6.617a.578.578 0 0 1-.862-.765l6.018-6.717-6.018-6.717a.576.576 0 1 1 .863-.765l5.93 6.617 5.93-6.617a.577.577 0 1 1 .863.766z"/></g></g></svg>