<svg xmlns="http://www.w3.org/2000/svg" viewBox="0 0 56.69 56.69"><defs><style>.cls-1{fill:#dc4e41;}.cls-2{fill:#fff;}</style></defs><g id="Слой_2" data-name="Слой 2"><g id="Capa_1" data-name="Capa 1"><path class="cls-1" d="M28.34,0A28.35,28.35,0,1,1,0,28.34,28.34,28.34,0,0,1,28.34,0Z"/><path class="cls-1" d="M9.87,29.61a11.68,11.68,0,0,0,7.88,11c4.35,1.46,9.7.37,12.6-3.36,2.11-2.61,2.59-6.09,2.36-9.34-3.72,0-7.45,0-11.17,0,0,1.33,0,2.65,0,4,2.23.06,4.47,0,6.7.08a6.45,6.45,0,0,1-3.8,4.42,7.38,7.38,0,1,1-5-13.89c2.4-.84,4.86.11,6.91,1.35,1-1,2-2,3-3.05A11.74,11.74,0,0,0,9.87,29.61Z"/><path class="cls-1" d="M40,24.59l0,3.34L36.6,28v3.33l3.34,0c0,1.11,0,2.22,0,3.34h3.33c0-1.12,0-2.23,0-3.35h3.34V28l-3.34,0c0-1.11,0-2.23,0-3.34Z"/><path class="cls-2" d="M9.87,29.61a11.74,11.74,0,0,1,19.47-8.78c-.95,1.05-1.92,2.08-3,3.05-2.05-1.24-4.51-2.19-6.91-1.35a7.38,7.38,0,1,0,5,13.89A6.47,6.47,0,0,0,28.24,32c-2.23-.05-4.47,0-6.7-.08,0-1.33,0-2.65,0-4,3.72,0,7.45,0,11.17,0,.23,3.25-.25,6.73-2.36,9.34-2.9,3.73-8.25,4.82-12.6,3.36A11.68,11.68,0,0,1,9.87,29.61Z"/><path class="cls-2" d="M40,24.59h3.32c0,1.11,0,2.23,0,3.34l3.34,0v3.33H43.31c0,1.12,0,2.23,0,3.35H40c0-1.12,0-2.23,0-3.34l-3.34,0V28l3.34,0Z"/></g></g></svg>