<?xml version="1.0" encoding="utf-8"?>
<!-- Generator: Adobe Illustrator 24.3.0, SVG Export Plug-In . SVG Version: 6.00 Build 0)  -->
<svg version="1.1" id="Capa_1" xmlns="http://www.w3.org/2000/svg" xmlns:xlink="http://www.w3.org/1999/xlink" x="0px" y="0px"
	 viewBox="0 0 30.6 30.6" style="enable-background:new 0 0 30.6 30.6;" xml:space="preserve">
<style type="text/css">
	.st0{fill:url(#SVGID_1_);}
	.st1{fill:#FFFFFF;}
</style>
<linearGradient id="SVGID_1_" gradientUnits="userSpaceOnUse" x1="566.7623" y1="-673.6637" x2="588.0244" y2="-652.4041" gradientTransform="matrix(1 0 0 -1 -561.8203 -647.7305)">
	<stop  offset="0" style="stop-color:#FFDC55"/>
	<stop  offset="0.5" style="stop-color:#E95544"/>
	<stop  offset="1" style="stop-color:#AE4692"/>
</linearGradient>
<circle class="st0" cx="15.6" cy="15.3" r="15"/>
<path class="st1" d="M15.5,5.2c-4.3,0-8.3-0.4-9.9,3.6C5,10.4,5,12.6,5,15.7c0,2.7-0.1,5.3,0.6,6.9c1.6,4,5.6,3.6,9.9,3.6
	c4.1,0,8.3,0.4,9.9-3.6c0.6-1.7,0.6-3.8,0.6-6.9c0-4.1,0.2-6.7-1.8-8.7C22.2,4.9,19.5,5.2,15.5,5.2L15.5,5.2z M14.6,7
	c8.9,0,10.1-1,9.5,12.8c-0.2,4.9-4,4.4-8.5,4.4C7.2,24.2,7,24,7,15.7C7,7.2,7.6,7,14.6,7L14.6,7z M21.1,8.8c-0.7,0-1.3,0.6-1.3,1.3
	c0,0.7,0.6,1.3,1.3,1.3c0.7,0,1.3-0.6,1.3-1.3C22.4,9.4,21.8,8.8,21.1,8.8z M15.5,10.3c-2.9,0-5.4,2.4-5.4,5.4s2.4,5.4,5.4,5.4
	s5.4-2.4,5.4-5.4S18.5,10.3,15.5,10.3L15.5,10.3z M15.5,12.1c4.6,0,4.6,7,0,7S10.9,12.1,15.5,12.1z"/>
</svg>
