<svg xmlns="http://www.w3.org/2000/svg" width="49" height="37" viewBox="0 0 49 37"><defs><clipPath id="3n65a"><path fill="#fff" d="M17 9c3.866 0 7 1.79 7 4 0 2.209-3.134 4-7 4s-7-1.791-7-4c0-2.21 3.134-4 7-4z"/></clipPath></defs><g><g><path fill="#b11b1b" d="M48.449 23.907V35.86a.974.974 0 0 1-.974.973H16.574c-.692 0-1.373-.049-2.045-.108h-.166C6.27 35.957-.01 30.9-.01 24.773V12.81C-.011 6.158 7.399.74 16.545.74 25.689.74 33.1 6.159 33.1 12.81v10.125h14.375c.537 0 .974.435.974.972zM1.985 12.819c0 5.583 6.535 10.125 14.608 10.125 8.074 0 14.609-4.542 14.609-10.124 0-5.583-6.574-10.125-14.609-10.125-8.024 0-14.608 4.542-14.608 10.124zm29.168 5.67a14.683 14.683 0 0 1-5.6 4.446h5.649V18.49zM46.5 24.88H16.642c-6.34 0-11.823-2.587-14.608-6.39v6.274c0 4.863 4.947 8.928 11.52 9.9v-2.44a.973.973 0 0 1 1.948 0v2.674h3.896v-2.675a.973.973 0 0 1 1.948 0v2.675h3.73v-4.931a.974.974 0 0 1 1.947 0v4.931h3.896v-2.675a.973.973 0 0 1 1.948 0v2.675h3.895v-2.675a.973.973 0 0 1 1.948 0v2.675h3.896v-4.931a.973.973 0 0 1 1.947 0v4.921h1.948z"/></g><g><path fill="none" d="M17 9c3.866 0 7 1.79 7 4 0 2.209-3.134 4-7 4s-7-1.791-7-4c0-2.21 3.134-4 7-4z"/><path fill="none" stroke="#b11b1b" stroke-linecap="round" stroke-linejoin="round" stroke-miterlimit="20" stroke-width="4" d="M17 9c3.866 0 7 1.79 7 4 0 2.209-3.134 4-7 4s-7-1.791-7-4c0-2.21 3.134-4 7-4z" clip-path="url(&quot;#3n65a&quot;)"/></g></g></svg>