<svg xmlns="http://www.w3.org/2000/svg" width="46" height="53" viewBox="0 0 46 53"><g><g><path fill="#b11b1b" d="M28.335 23.183l1.048-18.321a2.863 2.863 0 0 1-1.664-2.594V1.094a.657.657 0 0 1 .661-.66h8.593a.66.66 0 0 1 .662.66v1.174A2.855 2.855 0 0 1 35.97 4.86l1.044 18.322h1.466a.661.661 0 0 1 .661.658v12.845h5.672a.66.66 0 0 1 .662.66v14.298a.658.658 0 0 1-.662.66H.846a.66.66 0 0 1-.661-.66V37.345a.659.659 0 0 1 .66-.659h8.162v-2.735a5.071 5.071 0 0 1 1.345-3.431 5.104 5.104 0 0 1 3.317-1.624l1.721-18.11a.659.659 0 0 1 .659-.598h5a.66.66 0 0 1 .658.605l1.04 12.39zm-13.336 5.694h2.43v-5.036a.658.658 0 0 1 .661-.658h3.33l-.98-11.675h-3.79zm-4.67 7.81h21.052V33.95a3.753 3.753 0 0 0-1.104-2.654 3.777 3.777 0 0 0-2.662-1.102h-13.52a3.777 3.777 0 0 0-2.661 1.102 3.753 3.753 0 0 0-1.105 2.654zm33.823 1.318H1.507v12.98h42.645zM37.82 24.501H18.752v4.376h8.863a5.102 5.102 0 0 1 3.597 1.488c.954.95 1.49 2.24 1.492 3.586v2.735h5.115zM29.04 2.268a1.548 1.548 0 0 0 1.543 1.539h4.185c.41 0 .801-.163 1.09-.451.29-.289.453-.68.453-1.088v-.515h-7.27zm.618 20.915h6.03L34.662 5.125h-3.969zM15.455 46.568a.659.659 0 0 1-.194-.466v-5.321a.658.658 0 0 1 .662-.66h4.447a.66.66 0 0 1 .662.66v5.321a.66.66 0 0 1-.662.66h-4.447a.664.664 0 0 1-.468-.194zm1.129-1.125h3.125V41.44h-3.125zM6.089 46.568a.659.659 0 0 1-.194-.466v-5.321a.658.658 0 0 1 .662-.66h4.447a.66.66 0 0 1 .662.66v5.321a.659.659 0 0 1-.662.66H6.557a.664.664 0 0 1-.468-.194zm1.129-1.125h3.125V41.44H7.218zm17.603 1.125a.659.659 0 0 1-.193-.466v-5.321a.658.658 0 0 1 .66-.66h4.449a.66.66 0 0 1 .66.66v5.321a.659.659 0 0 1-.66.66h-4.448a.663.663 0 0 1-.468-.194zm1.13-1.125h3.124V41.44H25.95zm8.236 1.125a.66.66 0 0 1-.193-.466v-5.321a.659.659 0 0 1 .66-.66h4.449a.66.66 0 0 1 .66.66v5.321a.659.659 0 0 1-.66.66h-4.448a.664.664 0 0 1-.468-.194zm1.13-1.125h3.124V41.44h-3.125z"/></g></g></svg>