<svg xmlns="http://www.w3.org/2000/svg" width="42" height="54" viewBox="0 0 42 54"><g><g><path fill="#b11b1b" d="M41.716 12.427v13.651c-.001 11.589-6.983 22.046-17.714 26.533l-3.056 1.314c-.254.11-.543.11-.797-.001l-2.712-1.177C6.9 48.16.088 37.803.077 26.355V12.427c0-.364.198-.699.519-.874L20.137.891c.296-.161.653-.163.952-.005l20.097 10.662c.326.173.53.511.53.88zm-2.001.597L20.625 2.896 2.076 13.016v13.339c.011 10.657 6.353 20.297 16.16 24.566l2.313 1.004 2.662-1.143.007-.004c9.992-4.175 16.493-13.91 16.496-24.7zM17.893 31.131l11.551-9.356a1.004 1.004 0 0 1 1.408.143.993.993 0 0 1-.145 1.402l-12.309 9.97a1.004 1.004 0 0 1-1.392-.125l-5.285-6.163a.993.993 0 0 1 .111-1.404 1.004 1.004 0 0 1 1.411.11z"/></g></g></svg>