<svg xmlns="http://www.w3.org/2000/svg" width="45" height="54" viewBox="0 0 45 54"><g><g><path fill="#b11b1b" d="M18.137 28.257a.81.81 0 0 1-.431-.464.836.836 0 0 1-.052-.32v-8.905a.84.84 0 0 1 .242-.59.822.822 0 0 1 1.168 0 .84.84 0 0 1 .242.59v8.095h5.753c.22 0 .43.088.584.244a.839.839 0 0 1 0 1.18.823.823 0 0 1-.584.245H18.45a.82.82 0 0 1-.313-.074zM15.884 8.704V6.406h-1.128a1.661 1.661 0 0 1-1.213-.5 1.705 1.705 0 0 1-.49-1.227V2.685a1.745 1.745 0 0 1 .487-1.24 1.695 1.695 0 0 1 1.216-.52h7.447a1.696 1.696 0 0 1 1.217.52 1.739 1.739 0 0 1 .487 1.24v1.994a1.714 1.714 0 0 1-.49 1.227 1.689 1.689 0 0 1-1.214.5h-1.127v2.298a18.355 18.355 0 0 1 9.338 4.237l1.793-1.794a1.736 1.736 0 0 1 2.466 0l1.396 1.41a1.77 1.77 0 0 1 0 2.49l-2.024 2.044a18.73 18.73 0 0 1 2.96 10.131c-.001 1.256-.126 2.51-.374 3.74a11.427 11.427 0 0 1 4.97 3.067 11.591 11.591 0 0 1 2.832 5.139c.49 1.93.477 3.957-.038 5.881a11.59 11.59 0 0 1-2.898 5.102 11.428 11.428 0 0 1-5.008 3.002 11.34 11.34 0 0 1-5.822.124 11.412 11.412 0 0 1-5.13-2.784 11.58 11.58 0 0 1-3.11-4.973c-1.296.29-2.62.44-3.947.447-.038 0-.072-.009-.111-.009a.782.782 0 0 1-.132-.032C8.138 45.79-.027 37.453-.027 27.222c0-9.413 6.944-17.224 15.91-18.518zm24.384 26.34a9.756 9.756 0 0 0-6.922-2.9c-1.936 0-3.83.58-5.44 1.667a9.87 9.87 0 0 0-3.607 4.439 9.98 9.98 0 0 0-.557 5.714 9.918 9.918 0 0 0 2.68 5.064 9.765 9.765 0 0 0 5.014 2.707c1.9.381 3.869.186 5.658-.563a9.81 9.81 0 0 0 4.395-3.643 9.959 9.959 0 0 0-1.221-12.484zm-8.623-20.97c.507.518.984 1.065 1.429 1.638l1.827-1.844a.093.093 0 0 0 0-.131l-1.396-1.41a.092.092 0 0 0-.13 0zm-9.363-9.336c.024 0 .047-.01.065-.027a.095.095 0 0 0 .026-.066v-1.96a.094.094 0 0 0-.026-.065.092.092 0 0 0-.065-.027h-7.486a.092.092 0 0 0-.092.092v1.96a.092.092 0 0 0 .092.093zm-4.747 1.668V8.54c.236-.013.495-.02.754-.023a.502.502 0 0 1 .13-.002l.043-.001c.328 0 .726.01.962.026V6.406zM6.46 15.276a17.138 17.138 0 0 0-4.836 11.268h2.393a.82.82 0 0 1 .584.244.839.839 0 0 1 0 1.18.823.823 0 0 1-.584.244H1.634c.475 8.58 7.407 15.545 15.902 16.023v-2.519a.84.84 0 0 1 .242-.59.821.821 0 0 1 1.168 0 .84.84 0 0 1 .242.59v2.53c.96-.042 1.917-.163 2.858-.366a11.662 11.662 0 0 1 .4-5.357 11.57 11.57 0 0 1 2.756-4.596 11.424 11.424 0 0 1 4.517-2.84 11.337 11.337 0 0 1 5.3-.47c.16-.792.262-1.596.306-2.405h-2.612a.823.823 0 0 1-.584-.244.838.838 0 0 1 0-1.18.82.82 0 0 1 .584-.244h2.623c-.361-8.818-7.417-15.978-16.148-16.346v2.536a.838.838 0 0 1-.242.59.823.823 0 0 1-1.41-.59V10.21a16.814 16.814 0 0 0-11.077 5.066zm26.879 18.578c.144 0 .285.038.41.111l6.288 3.674a.821.821 0 0 1 .39.722v7.347a.81.81 0 0 1-.388.722l-6.276 3.674a.804.804 0 0 1-.817 0l-6.289-3.674a.81.81 0 0 1-.389-.722v-7.347a.817.817 0 0 1 .387-.722l6.274-3.674a.812.812 0 0 1 .41-.111zm-.817 8.662l-4.602-2.71v5.42l4.602 2.71zm6.253-2.71l-4.602 2.71v5.42l4.602-2.71zm-2.34-2.355l-4.647 2.71 1.56.91 4.647-2.71zm-3.088-1.8l-4.647 2.71 1.436.838 4.647-2.71z"/></g></g></svg>