<?xml version="1.0" encoding="utf-8"?><svg xmlns="http://www.w3.org/2000/svg" xmlns:xlink="http://www.w3.org/1999/xlink"><symbol viewBox="0 0 27 20" id="arrow-link" xmlns="http://www.w3.org/2000/svg"><path d="M24 9.8v-.7h-.3L17 2.5l-.7.6 6 6H2v1h20.3L16 16.4l.8.7 6.9-7h.3v-.3z"/></symbol><symbol viewBox="0 0 22 24" id="basket" xmlns="http://www.w3.org/2000/svg"><g clip-path="url(#ba)"><path d="M10.363 18.443a2.046 2.046 0 00-2.045 2.042 2.046 2.046 0 004.09 0 2.046 2.046 0 00-2.045-2.042zm6.134 0a2.046 2.046 0 00-2.045 2.042 2.046 2.046 0 004.089 0 2.046 2.046 0 00-2.044-2.042zm3.978-8.199L7.413 6.891a.614.614 0 00-.75.73L8.67 16.4h-.786L5.482 5.895a.613.613 0 00-.474-.464l-4.27-.882A.614.614 0 00.489 5.75l3.885.802L6.797 17.15a.613.613 0 00.598.477h12.07a.615.615 0 00.607-.53l.858-6.175a.613.613 0 00-.455-.678zm-8.14 3.91a.613.613 0 01-1.227 0v-2.696a.613.613 0 011.227 0v2.696zm2.625 0a.613.613 0 01-1.227 0v-1.88a.613.613 0 011.227 0v1.88zm2.625 0a.613.613 0 01-1.227 0v-1.226a.613.613 0 011.227 0v1.226z"/></g><path fill-rule="evenodd" clip-rule="evenodd" d="M16.268 4.568a2.996 2.996 0 00-1.693-.523c-.627 0-1.21.193-1.693.523-.28-.843-.492-1.752-.492-2.383C12.39.98 13.37 0 14.575 0s2.185.98 2.185 2.185c0 .631-.212 1.54-.492 2.383zm-4.722 2.274l.024.006v-.011l-.024.005zm4.972 1.217c-1.333-.33-2.766-.681-4.129-1.013a2.185 2.185 0 114.129 1.013zm4.436 1.103c-.866-.217-2.155-.538-3.618-.9a2.995 2.995 0 00.243-1.425c.87.18 1.762.45 2.308.765.596.344.969.928 1.067 1.56zM9.869 6.439c-.36-.086-.706-.167-1.03-.243a2.19 2.19 0 01-.376-2.667 2.188 2.188 0 013.147-.7c.098.738.338 1.599.61 2.353a3.01 3.01 0 00-.449.774c-.628.113-1.305.278-1.902.483zm10.124.075a3.43 3.43 0 01-.217.114c-.696-.295-1.587-.526-2.397-.672a3.01 3.01 0 00-.449-.774c.262-.727.494-1.553.599-2.273.095-.067.189-.128.278-.18a2.188 2.188 0 012.986.8 2.188 2.188 0 01-.8 2.985z"/><defs><clipPath id="ba"><path transform="translate(0 3.064)" d="M0 0h20.936v20.936H0z"/></clipPath></defs></symbol><symbol viewBox="0 0 64 64" id="cargo-truck" xmlns="http://www.w3.org/2000/svg"><g clip-path="url(#ca)"><path d="M63.996 38.706a1.296 1.296 0 00-.004-.044l-.008-.049-.009-.045c-.004-.016-.007-.031-.012-.046a1.552 1.552 0 00-.03-.09.982.982 0 00-.018-.043l-.02-.043a.767.767 0 00-.046-.08l-.028-.042a.836.836 0 00-.06-.076l-.015-.02-7.106-7.741a3.733 3.733 0 00-2.744-1.206H42.41v-10.01a3.729 3.729 0 00-3.724-3.723H26.552c-1.22-6.853-7.49-11.626-14.42-10.977C5.203 5.12-.071 10.973 0 17.933c.074 6.96 5.471 12.701 12.413 13.204v20a3.728 3.728 0 003.724 3.723h2.565a5.792 5.792 0 0011.422 0H46.29a5.792 5.792 0 0011.422 0h2.565A3.728 3.728 0 0064 51.136V38.782l-.001-.023c0-.018-.002-.035-.003-.053zm-10.1-7.593c.502 0 .981.21 1.321.58l5.62 6.125H42.41v-6.705h11.486zM1.93 17.793c0-6.323 5.126-11.45 11.448-11.45 6.323 0 11.449 5.127 11.449 11.45 0 6.322-5.126 11.448-11.449 11.448-6.32-.007-11.441-5.128-11.448-11.449zm12.414 33.343v-20c6.993-.513 12.405-6.332 12.414-13.344 0-.138-.003-.276-.007-.413h11.935c.99 0 1.792.803 1.793 1.793v33.757H30.124a5.792 5.792 0 00-11.422 0h-2.565a1.795 1.795 0 01-1.793-1.793zm10.07 6.62a3.862 3.862 0 11-.001-7.723 3.862 3.862 0 010 7.724zm27.586 0a3.862 3.862 0 110-7.723 3.862 3.862 0 010 7.724zm10.069-6.62a1.795 1.795 0 01-1.793 1.793H57.71a5.793 5.793 0 00-11.422 0H42.41V39.748h19.66v11.388z"/><path d="M18.719 14.57a.965.965 0 00-1.358-.14l-5.693 4.632-2.147-2.514a.966.966 0 00-1.469 1.254l2.759 3.23a.966.966 0 001.344.122l6.425-5.227a.966.966 0 00.139-1.357z"/></g><defs><clipPath id="ca"><path d="M0 0h64v64H0z"/></clipPath></defs></symbol><symbol viewBox="0 0 344.96 344.96" id="check" xmlns="http://www.w3.org/2000/svg"><g data-name="Слой 2"><path class="dcls-1" d="M321.85 86.24l-40-23.11-23.1-40H212.5L172.48 0l-40 23.11H86.24l-23.11 40-40 23.1v46.21L0 172.48l23.11 40v46.21l40 23.11 23.11 40h46.21l40 23.1 40-23.11h46.21l23.11-40 40-23.11V212.5l23.11-40-23.11-40V86.24zM156.91 243.07a16.79 16.79 0 01-23.34 0l-50.45-50.44a16.19 16.19 0 010-22.89l13.35-13.35a16.19 16.19 0 0122.89 0l25.87 25.87 80.34-80.35a16.19 16.19 0 0122.89 0l13.35 13.35a16.19 16.19 0 010 22.89z" data-name="Capa 1"/></g></symbol><symbol viewBox="0 0 15 17" id="close-btn" xmlns="http://www.w3.org/2000/svg"><path d="M13.238 0L7.5 6.304 1.763 0 0 1.94l7.5 8.26L15 1.94 13.238 0z"/><path d="M13.238 17L7.5 10.695 1.763 17 0 15.06 7.5 6.8l7.5 8.26L13.238 17z"/></symbol><symbol viewBox="0 0 18 18" id="download" xmlns="http://www.w3.org/2000/svg"><path d="M9.024 14.25a2.243 2.243 0 001.591-.659l2.94-2.941-1.06-1.058-2.726 2.726L9.75 0h-1.5l.02 12.306-2.715-2.715-1.06 1.059 2.94 2.94a2.244 2.244 0 001.59.66z"/><path d="M16.5 12v3.75a.75.75 0 01-.75.75H2.25a.75.75 0 01-.75-.75V12H0v3.75A2.25 2.25 0 002.25 18h13.5A2.25 2.25 0 0018 15.75V12h-1.5z"/></symbol><symbol viewBox="0 0 24 24" id="fb" xmlns="http://www.w3.org/2000/svg"><path d="M13.397 20.997v-8.196h2.765l.411-3.209h-3.176V7.548c0-.926.258-1.56 1.587-1.56h1.684v-2.86A22.108 22.108 0 0014.201 3c-2.444 0-4.122 1.492-4.122 4.231v2.355H7.332v3.21h2.753v8.201h3.312z"/></symbol><symbol viewBox="0 0 24 24" id="instagram" xmlns="http://www.w3.org/2000/svg"><path d="M11.999 7.377a4.624 4.624 0 100 9.248 4.624 4.624 0 000-9.248zm0 7.627a3.004 3.004 0 110-6.008 3.004 3.004 0 010 6.008zm4.807-6.719a1.078 1.078 0 100-2.156 1.078 1.078 0 000 2.156z"/><path d="M20.533 6.11A4.605 4.605 0 0017.9 3.48a6.607 6.607 0 00-2.186-.42c-.963-.042-1.268-.054-3.71-.054s-2.755 0-3.71.054a6.554 6.554 0 00-2.184.42 4.6 4.6 0 00-2.633 2.63 6.585 6.585 0 00-.419 2.186c-.043.962-.056 1.267-.056 3.71 0 2.442 0 2.753.056 3.71.015.748.156 1.486.419 2.187a4.61 4.61 0 002.634 2.632 6.583 6.583 0 002.185.45c.963.042 1.268.055 3.71.055s2.755 0 3.71-.055a6.616 6.616 0 002.186-.42 4.613 4.613 0 002.633-2.632c.263-.7.404-1.438.419-2.186.043-.962.056-1.267.056-3.71s0-2.753-.056-3.71a6.583 6.583 0 00-.421-2.217zm-1.218 9.533a5.046 5.046 0 01-.311 1.688 2.987 2.987 0 01-1.712 1.71c-.535.2-1.1.305-1.67.312-.95.044-1.218.055-3.654.055-2.438 0-2.687 0-3.655-.055a4.961 4.961 0 01-1.67-.311 2.984 2.984 0 01-1.718-1.711 5.08 5.08 0 01-.311-1.67c-.043-.95-.053-1.217-.053-3.653 0-2.437 0-2.686.053-3.655a5.038 5.038 0 01.311-1.687c.305-.79.93-1.41 1.719-1.712a5.01 5.01 0 011.669-.311c.95-.043 1.218-.055 3.655-.055s2.687 0 3.654.055a4.96 4.96 0 011.67.31 2.99 2.99 0 011.712 1.713 5.06 5.06 0 01.311 1.669c.043.95.054 1.218.054 3.655 0 2.436 0 2.698-.043 3.654h-.011v-.001z"/></symbol><symbol viewBox="0 0 9 6" id="link-arrow" xmlns="http://www.w3.org/2000/svg"><path d="M7.942 0L4.5 3.708 1.058 0 0 1.142 4.5 6 9 1.142 7.942 0z"/></symbol><symbol viewBox="0 0 52 64" id="pasport" xmlns="http://www.w3.org/2000/svg"><path d="M.209 46.621L.015 6.387C-.001 2.927 2.798.108 6.267.092L25.482 0c.027 0 .054 0 .08.003l.29.028a.812.812 0 01.491.228l13.899 13.7a.814.814 0 01.24.57v.23l.105 18.413 10.98 5.836c.263.14.428.414.428.711v7.889a16.862 16.862 0 01-10.359 15.544l-1.762.76a.81.81 0 01-.642-.001l-1.565-.68a16.935 16.935 0 01-9.395-10.482l-21.75.107H6.49a6.252 6.252 0 01-4.42-1.814 6.219 6.219 0 01-1.861-4.42zm50.172-6.42L39.6 34.472l-10.47 5.725v7.572a15.283 15.283 0 009.184 13.987l1.242.54L41 61.674l.006-.003a15.256 15.256 0 009.376-14.063zM26.563 2.74l.031 6.424a4.668 4.668 0 004.668 4.634h.023l6.464-.03zM1.63 6.379l.194 40.234a4.662 4.662 0 004.667 4.634h.024l21.345-.106a16.756 16.756 0 01-.344-3.373v-8.05c0-.293.16-.564.419-.705l11.038-6.034-.1-17.609-7.58.037h-.03c-3.457-.005-6.262-2.79-6.282-6.236l-.037-7.56-18.668.09A4.643 4.643 0 002.98 3.08a4.621 4.621 0 00-1.35 3.299zm21.43 24.144a.806.806 0 01-.808.804h-2.737a.805.805 0 110-1.61h2.737c.446 0 .807.361.807.806zM8.155 23.696c0-.444.362-.804.807-.804h22.723a.806.806 0 110 1.61H8.963a.806.806 0 01-.807-.806zm0 6.827c0-.445.362-.805.807-.805h7.083a.806.806 0 010 1.61H8.963a.806.806 0 01-.807-.805zM38.05 50.208l6.49-5.266a.808.808 0 011.126.124.804.804 0 01-.108 1.125l-7.1 5.762a.808.808 0 01-1.123-.102l-3.049-3.561a.804.804 0 01.463-1.321.81.81 0 01.764.275z"/></symbol><symbol viewBox="0 0 22 22" id="phone" xmlns="http://www.w3.org/2000/svg"><path d="M19.1 14.9l-2.5-2.5c-.6-.6-1.5-.6-2.1 0L13 13.8c-.1.1-.3.1-.4 0-.8-.6-1.5-1.2-2.2-1.9-.6-.6-1.2-1.3-1.7-2-.1-.1-.1-.3 0-.4L10.2 8c.6-.6.6-1.5 0-2.1L7.7 3.4c-.6-.6-1.5-.6-2.1 0l-.8.8c-1.2 1.2-1.6 3-1.1 4.6.4 1.2.9 2.3 1.6 3.4.6 1 1.3 1.8 2.2 2.6.9.9 1.8 1.7 2.9 2.4 1.1.8 2.4 1.3 3.7 1.7.3.1.7.1 1 .1 1.2 0 2.4-.5 3.2-1.4l.7-.7c.6-.5.6-1.5.1-2zm-.7 1.4l-.7.7c-.9.9-2.2 1.3-3.4 1s-2.4-.9-3.5-1.6c-1-.6-1.9-1.4-2.7-2.2s-1.4-1.6-2-2.5c-.7-1-1.2-2-1.5-3.1-.4-1.3-.1-2.8.9-3.7l.8-.8c.2-.2.6-.2.8 0l2.5 2.5c.2.2.2.6 0 .8L8.1 8.9c-.4.4-.4 1.1-.1 1.6.5.7 1.1 1.4 1.8 2.1.7.7 1.5 1.4 2.3 2 .5.3 1.1.3 1.6-.1l1.4-1.5c.2-.2.6-.2.8 0l2.5 2.6c.2.1.2.5 0 .7z"/></symbol><symbol viewBox="0 0 50 64" id="quality-header" xmlns="http://www.w3.org/2000/svg"><path d="M49.99 14.046v16.39c0 13.912-8.383 26.468-21.267 31.855l-3.67 1.578a1.2 1.2 0 01-.956-.001l-3.257-1.413C8.19 56.948.011 44.512-.003 30.767V14.046c0-.438.238-.84.623-1.05L24.082.195a1.205 1.205 0 011.143-.007l24.13 12.801a1.2 1.2 0 01.636 1.057zm-2.402.716l-22.92-12.16-22.27 12.151v16.014c.014 12.796 7.629 24.37 19.404 29.495l2.776 1.206 3.196-1.373.008-.004c11.997-5.013 19.803-16.702 19.806-29.656zm-26.2 21.739l13.869-11.233a1.206 1.206 0 011.69.173 1.191 1.191 0 01-.174 1.682L21.994 39.094a1.205 1.205 0 01-1.67-.15l-6.347-7.4a1.192 1.192 0 01.134-1.686 1.206 1.206 0 011.694.133z"/></symbol><symbol viewBox="0 0 30 30" id="search" xmlns="http://www.w3.org/2000/svg"><path d="M26.2 25l-5.4-5.4c1.3-1.6 2.1-3.7 2.1-5.9 0-5.1-4.2-9.3-9.3-9.3s-9.3 4.2-9.3 9.3S8.5 23 13.6 23c2.2 0 4.3-.8 5.9-2.1l5.4 5.4c.2.2.4.3.6.3s.4-.1.6-.3c.5-.4.5-.9.1-1.3zm-20-11.2c0-4.2 3.4-7.5 7.5-7.5 4.2 0 7.5 3.4 7.5 7.5s-3.4 7.5-7.5 7.5-7.5-3.4-7.5-7.5z"/></symbol><symbol viewBox="0 0 70.9 70.9" id="shoping-bag" xmlns="http://www.w3.org/2000/svg"><path d="M67.5 11.9H15.4l-.2-.9c-.2-2-1.1-3.7-2.6-5-1.4-1.3-3.3-2-5.3-2H4.2v5.3h3.2c.6 0 1.3.2 1.8.7.5.4.8 1 .9 1.7l4.2 35.6c.2 1.9 1.2 3.7 2.6 5 1.4 1.3 3.3 2 5.3 2H57V49H22c-.6 0-1.3-.2-1.8-.7-.5-.4-.8-1-.9-1.7l-.3-2.9h42.7l5.8-31.8zM57.4 38.3H18.5L16 17.2h45.2l-3.8 21.1zM22.6 56.8c-2.9 0-5.3 2.4-5.3 5.3s2.4 5.3 5.3 5.3 5.3-2.4 5.3-5.3c0-3-2.3-5.3-5.3-5.3zm26.4 0c-2.9 0-5.3 2.4-5.3 5.3s2.4 5.3 5.3 5.3 5.3-2.4 5.3-5.3c0-3-2.3-5.3-5.3-5.3z"/></symbol><symbol viewBox="0 0 16 16" id="telegram" xmlns="http://www.w3.org/2000/svg"><path d="M14.629 3.698l-2.012 9.618c-.152.679-.548.848-1.11.528l-3.066-2.29-1.48 1.442c-.163.166-.3.305-.616.305l.22-3.165 5.683-5.204c.247-.223-.054-.347-.384-.123L4.839 9.29l-3.024-.959c-.658-.208-.67-.667.137-.986L13.78 2.727c.548-.208 1.027.124.849.971z"/></symbol><symbol viewBox="0 0 18 14" id="toggle-icon" xmlns="http://www.w3.org/2000/svg"><path data-name="menu icon" d="M0 2V0h18v2H0zm0 6V6h14v2H0zm0 6v-2h10v2H0z"/></symbol><symbol viewBox="0 0 16 16" id="viber" xmlns="http://www.w3.org/2000/svg"><path d="M8 1.335c-1.071.013-3.374.19-4.662 1.37-.958.948-1.292 2.35-1.331 4.084-.033 1.728-.072 4.973 3.058 5.856v1.346s-.02.538.337.648c.438.14.688-.275 1.105-.72l.778-.879c2.142.178 3.782-.232 3.97-.293.435-.139 2.883-.451 3.283-3.696.41-3.351-.2-5.463-1.301-6.418h-.007c-.332-.306-1.668-1.279-4.652-1.29 0 0-.222-.014-.578-.008zm.037.942a7.02 7.02 0 01.488.011c2.527.007 3.732.767 4.017 1.023.927.794 1.405 2.697 1.055 5.495-.332 2.713-2.317 2.885-2.685 3.002-.156.05-1.6.406-3.42.289 0 0-1.356 1.634-1.78 2.055-.067.074-.146.095-.196.085-.071-.018-.093-.107-.089-.229l.013-2.233c-2.655-.733-2.498-3.5-2.47-4.946.033-1.446.304-2.628 1.113-3.43 1.088-.982 3.043-1.115 3.953-1.122zm.2 1.446a.166.166 0 100 .332 3.136 3.136 0 012.242.883c.606.588.9 1.378.912 2.411 0 .092.074.167.167.167V7.51a.167.167 0 00.168-.165 3.588 3.588 0 00-1.009-2.646c-.66-.645-1.496-.977-2.48-.977zm-2.198.382a.523.523 0 00-.342.067H5.69a2.61 2.61 0 00-.637.523 1.003 1.003 0 00-.256.525.71.71 0 00.026.302l.01.006c.172.504.396.988.67 1.444a8.48 8.48 0 001.29 1.762l.015.022.024.017.015.018.017.015c.532.505 1.127.94 1.769 1.295.734.4 1.18.588 1.447.667v.004c.078.024.15.034.221.034.228-.016.444-.109.613-.262a2.53 2.53 0 00.517-.638v-.004c.128-.241.085-.469-.1-.623-.37-.323-.77-.61-1.195-.857-.285-.155-.574-.061-.69.095l-.25.315c-.129.156-.361.134-.361.134l-.007.004C7.093 8.527 6.63 6.772 6.63 6.772s-.022-.239.139-.36l.312-.252c.15-.122.254-.41.094-.695a7.498 7.498 0 00-.856-1.194.475.475 0 00-.28-.167zm2.486.495c-.221 0-.221.334.003.334A2.098 2.098 0 0110 5.572 1.94 1.94 0 0110.5 7a.168.168 0 00.167.165l.007.009a.169.169 0 00.167-.167c.015-.662-.191-1.218-.595-1.663C9.84 4.9 9.273 4.65 8.549 4.6h-.024zm.274.898c-.228-.006-.236.335-.01.341.55.029.816.306.851.877a.166.166 0 00.165.163h.007a.168.168 0 00.16-.178c-.039-.744-.445-1.164-1.166-1.202H8.8z"/></symbol><symbol viewBox="0 0 24 24" id="vk" xmlns="http://www.w3.org/2000/svg"><path d="M21.579 6.855c.14-.465 0-.806-.662-.806h-2.193c-.558 0-.813.295-.953.619 0 0-1.115 2.719-2.695 4.482-.51.513-.743.675-1.021.675-.139 0-.341-.162-.341-.627V6.855c0-.558-.161-.806-.626-.806H9.642c-.348 0-.558.258-.558.504 0 .528.79.65.871 2.138v3.228c0 .707-.127.836-.407.836-.743 0-2.551-2.73-3.624-5.853-.209-.607-.42-.852-.98-.852H2.752c-.627 0-.752.295-.752.619 0 .582.743 3.462 3.461 7.27 1.812 2.602 4.363 4.012 6.687 4.012 1.393 0 1.565-.313 1.565-.853v-1.966c0-.626.133-.752.574-.752.324 0 .882.164 2.183 1.417 1.486 1.486 1.732 2.153 2.567 2.153h2.192c.626 0 .939-.313.759-.931-.197-.615-.907-1.51-1.849-2.57-.512-.603-1.277-1.253-1.51-1.578-.325-.42-.231-.604 0-.976.001 0 2.672-3.761 2.95-5.04z"/></symbol><symbol viewBox="0 0 16 16" id="whatsapp" xmlns="http://www.w3.org/2000/svg"><path fill-rule="evenodd" clip-rule="evenodd" d="M12.269 3.755A5.947 5.947 0 008.035 2 5.994 5.994 0 002.05 7.985a5.98 5.98 0 00.799 2.992L2 14.077l3.173-.832c.877.477 1.86.728 2.86.728h.002a5.993 5.993 0 005.533-8.276 5.953 5.953 0 00-1.3-1.942zm-4.234 9.208h-.002c-.89 0-1.765-.24-2.532-.694l-.181-.108-1.883.494.502-1.835-.118-.188a4.965 4.965 0 01-.76-2.647 4.982 4.982 0 016.88-4.597c.604.25 1.152.618 1.613 1.081a4.946 4.946 0 011.455 3.52 4.982 4.982 0 01-4.974 4.974zm2.729-3.726c-.15-.075-.885-.436-1.022-.486-.137-.05-.236-.075-.336.074-.1.15-.387.486-.474.586-.087.1-.175.112-.324.038-.15-.075-.631-.233-1.203-.742a4.505 4.505 0 01-.832-1.036c-.087-.15-.009-.231.066-.306.068-.066.15-.174.224-.262.075-.087.1-.149.15-.249.05-.1.025-.187-.013-.262-.037-.075-.337-.811-.461-1.11-.121-.29-.244-.252-.336-.256a6.418 6.418 0 00-.286-.005.55.55 0 00-.4.186c-.137.15-.523.512-.523 1.248s.536 1.447.61 1.547c.075.1 1.055 1.61 2.555 2.258.358.154.636.246.853.315.358.114.684.098.942.06.287-.043.885-.362 1.01-.711.124-.35.124-.649.087-.711-.038-.063-.138-.101-.287-.176z"/></symbol></svg>