<?xml version="1.0" encoding="utf-8"?>
<!-- Generator: Adobe Illustrator 24.3.0, SVG Export Plug-In . SVG Version: 6.00 Build 0)  -->
<svg version="1.1" id="Слой_1" xmlns="http://www.w3.org/2000/svg" xmlns:xlink="http://www.w3.org/1999/xlink" x="0px" y="0px"
	 viewBox="0 0 30.1 30.1" style="enable-background:new 0 0 30.1 30.1;" xml:space="preserve">
<style type="text/css">
	.st0{fill-rule:evenodd;clip-rule:evenodd;fill:#009FE3;}
	.st1{fill:#FFFFFF;}
	.st2{display:none;}
	.st3{display:inline;fill-rule:evenodd;clip-rule:evenodd;fill:#009FE3;}
</style>
<g id="Слой_1_1_">
	<path class="st0" d="M14.7,0.9C22.6,0.9,29,7.3,29,15.1c0,7.9-6.4,14.3-14.3,14.3C6.8,29.4,0.5,23,0.5,15.1
		C0.5,7.3,6.8,0.9,14.7,0.9z"/>
	<path class="st1" d="M11.2,18.1l-0.3,4.2c0.4,0,0.6-0.2,0.8-0.4l2-1.9l4.2,3c0.8,0.4,1.3,0.2,1.5-0.7l2.7-12.7l0,0
		C22.3,8.5,21.7,8,21,8.3L5,14.4c-1.1,0.4-1.1,1-0.2,1.3l4,1.3l9.5-5.9c0.4-0.3,0.9-0.1,0.5,0.2L11.2,18.1z"/>
</g>
<g id="Слой_2_1_" class="st2">
	<path class="st3" d="M15.5,1.1C7.6,1.1,1.3,7.5,1.3,15.3c0,7.9,6.3,14.3,14.2,14.3s14.3-6.4,14.3-14.3C29.8,7.5,23.4,1.1,15.5,1.1z
		 M22.9,9.8l-2.7,12.7c-0.2,0.9-0.7,1.1-1.5,0.7l-4.2-3l-2,1.9c-0.2,0.2-0.4,0.4-0.8,0.4l0.3-4.2l7.6-6.8c0.4-0.3-0.1-0.5-0.5-0.2
		l-9.5,5.9l-4-1.3c-0.9-0.3-0.9-0.9,0.2-1.3l16-6.1C22.5,8.2,23.1,8.7,22.9,9.8z"/>
</g>
</svg>
