<svg xmlns="http://www.w3.org/2000/svg" width="30" height="30" viewBox="0 0 30 30"><g><g><path fill="#b11b1b" d="M30 15c0 8.271-6.729 15-15 15S0 23.27 0 15C0 6.728 6.729 0 15 0s15 6.728 15 15zm-1.155 0c0-7.634-6.21-13.846-13.845-13.846C7.365 1.154 1.154 7.366 1.154 15c0 7.635 6.211 13.845 13.846 13.845S28.845 22.635 28.845 15zm-5.961-6.2c.238.21.258.576.047.814l-9.23 10.384a.573.573 0 0 1-.792.068l-5.77-4.615a.577.577 0 0 1 .72-.902l5.342 4.273 8.867-9.974a.577.577 0 0 1 .816-.048z"/></g></g></svg>