<svg xmlns="http://www.w3.org/2000/svg" viewBox="0 0 56.69 56.69"><defs><style>.cls-1{fill:#4d76a1;}.cls-2{fill:#fff;}</style></defs><g id="Слой_2" data-name="Слой 2"><g id="Capa_1" data-name="Capa 1"><circle class="cls-1" cx="28.34" cy="28.34" r="28.34"/><path class="cls-2" d="M27.27,40.78H29.5a1.89,1.89,0,0,0,1-.45,1.6,1.6,0,0,0,.31-1s0-3,1.34-3.43,3.12,2.89,5,4.16a3.52,3.52,0,0,0,2.47.76l5-.07s2.6-.16,1.37-2.21c-.1-.16-.72-1.51-3.69-4.27s-2.7-2.43,1.05-7.43c2.29-3.05,3.2-4.91,2.92-5.71s-2-.56-2-.56l-5.59,0a1.25,1.25,0,0,0-.73.13,1.54,1.54,0,0,0-.49.6,32.53,32.53,0,0,1-2.07,4.36C32.9,30,31.9,30.19,31.5,29.92c-.95-.61-.71-2.46-.71-3.77,0-4.1.62-5.81-1.22-6.25A9.12,9.12,0,0,0,27,19.64a12.08,12.08,0,0,0-4.64.47c-.64.31-1.13,1-.83,1.05a2.48,2.48,0,0,1,1.65.83,5.42,5.42,0,0,1,.55,2.53S24,29.35,22.93,30c-.76.41-1.79-.43-4-4.27a36.84,36.84,0,0,1-2-4.14,1.67,1.67,0,0,0-.46-.62,2.23,2.23,0,0,0-.86-.35l-5.32,0s-.8,0-1.09.36,0,1,0,1S13.33,31.66,18,36.57a12.8,12.8,0,0,0,9.23,4.21Z"/></g></g></svg>