<?xml version="1.0" encoding="utf-8"?>
<!-- Generator: Adobe Illustrator 24.3.0, SVG Export Plug-In . SVG Version: 6.00 Build 0)  -->
<svg version="1.1" id="Слой_1" xmlns="http://www.w3.org/2000/svg" xmlns:xlink="http://www.w3.org/1999/xlink" x="0px" y="0px"
	 viewBox="0 0 30 30" style="enable-background:new 0 0 30 30;" xml:space="preserve">
<style type="text/css">
	.st0{fill-rule:evenodd;clip-rule:evenodd;fill:#28A138;}
	.st1{fill:#FFFFFF;}
</style>
<path class="st0" d="M15,0.6c7.7,0,13.9,6.2,13.9,13.9S22.7,28.5,15,28.5c-3.6,0-8.5-0.9-13.9,1.5c3.1-4.6,0-11.3,0-15.5
	C1.1,6.8,7.3,0.6,15,0.6z"/>
<path class="st1" d="M17.3,18.2c-0.3,0-2-1.1-3.1-2.2s-1.9-2.3-1.9-2.3c0.8-0.9,0.8-2.5,0.3-3.7c-0.6-1.5-2.3-2.6-3.9-1.9
	C7.4,8.8,7,11.1,7.4,12.4c0.5,1.2,1.9,4,4.2,6.2c2,2,6.7,5.3,9,4.3c1.7-0.6,2.3-2.8,1.5-4.5c-0.3-0.8-1.9-1.7-2.9-1.7
	C18.1,17.2,17.5,18.2,17.3,18.2z"/>
</svg>
