<svg xmlns="http://www.w3.org/2000/svg" viewBox="0 0 56.69 56.69"><defs><style>.cls-1{fill:#d7143a;}.cls-2{fill:#fff;}</style></defs><g id="Слой_2" data-name="Слой 2"><g id="Layer_1" data-name="Layer 1"><path class="cls-1" d="M28.34,0A28.35,28.35,0,1,1,0,28.34,28.34,28.34,0,0,1,28.34,0Z"/><path class="cls-2" d="M32.94,14.48H28.65c-4.35,0-8.74,3.21-8.74,10.38a9,9,0,0,0,4.46,8.26l-5.28,9.56a1.39,1.39,0,0,0,0,1.38,1.31,1.31,0,0,0,1.14.63h2.68a1.34,1.34,0,0,0,1.3-.81l5-9.69h.36v9.29a1.22,1.22,0,0,0,1.21,1.21h2.33a1.2,1.2,0,0,0,1.25-1.25V15.8A1.28,1.28,0,0,0,32.94,14.48ZM29.51,29.89h-.64c-2.47,0-3.95-2-3.95-5.4,0-4.21,1.87-5.71,3.61-5.71h1Z"/></g></g></svg>