<?xml version="1.0" encoding="utf-8"?>
<!-- Generator: Adobe Illustrator 24.3.0, SVG Export Plug-In . SVG Version: 6.00 Build 0)  -->
<svg version="1.1" id="Capa_1" xmlns="http://www.w3.org/2000/svg" xmlns:xlink="http://www.w3.org/1999/xlink" x="0px" y="0px"
	 viewBox="0 0 112.2 112.2" style="enable-background:new 0 0 112.2 112.2;" xml:space="preserve">
<style type="text/css">
	.st0{fill-rule:evenodd;clip-rule:evenodd;fill:#DD0C15;}
	.st1{fill:#FFFFFF;}
</style>
<path class="st0" d="M55.6,0.2c31,0,56.2,25.2,56.2,55.8c0,31-25.2,56.2-56.2,56.2S-0.2,87-0.2,56C-0.2,25.4,24.6,0.2,55.6,0.2z"/>
<path class="st1" d="M88.6,38.7c-0.8-3.1-3.1-5.5-6.3-6.3c-5.5-1.6-27.5-1.6-27.5-1.6s-22,0-27.5,1.6c-2.8,0.8-5.1,3.1-5.9,6.3
	c-1.6,5.5-1.6,16.9-1.6,16.9s0,11.4,1.6,16.9c0.8,3.1,3.1,5.5,6.3,6.3c5.5,1.6,27.5,1.6,27.5,1.6s22,0,27.5-1.6
	c3.1-0.8,5.5-3.1,6.3-6.3c1.6-5.5,1.6-16.9,1.6-16.9S90.2,44.2,88.6,38.7z M48.1,65.8V45l18.1,10.6L48.1,65.8z"/>
</svg>
