<?xml version="1.0" encoding="utf-8"?><svg xmlns="http://www.w3.org/2000/svg" xmlns:xlink="http://www.w3.org/1999/xlink"><symbol viewBox="0 0 27 20" id="arrow-link" xmlns="http://www.w3.org/2000/svg"><path d="M24 9.8v-.7h-.3L17 2.5l-.7.6 6 6H2v1h20.3L16 16.4l.8.7 6.9-7h.3v-.3z"/></symbol><symbol viewBox="0 0 19 15" id="arrow-right" xmlns="http://www.w3.org/2000/svg"><path d="M0 8V6.998h16.295L10.62 1.324l.76-.65L17.704 7H18v.295l.38.38L18 8l-.38.325-.132-.131-6.71 6.819-.783-.683L16.223 8z"/></symbol><symbol viewBox="0 0 22 24" id="basket" xmlns="http://www.w3.org/2000/svg"><g clip-path="url(#aca)"><path d="M10.363 18.443a2.046 2.046 0 00-2.045 2.042 2.046 2.046 0 004.09 0 2.046 2.046 0 00-2.045-2.042zm6.134 0a2.046 2.046 0 00-2.045 2.042 2.046 2.046 0 004.089 0 2.046 2.046 0 00-2.044-2.042zm3.978-8.199L7.413 6.891a.614.614 0 00-.75.73L8.67 16.4h-.786L5.482 5.895a.613.613 0 00-.474-.464l-4.27-.882A.614.614 0 00.489 5.75l3.885.802L6.797 17.15a.613.613 0 00.598.477h12.07a.615.615 0 00.607-.53l.858-6.175a.613.613 0 00-.455-.678zm-8.14 3.91a.613.613 0 01-1.227 0v-2.696a.613.613 0 011.227 0v2.696zm2.625 0a.613.613 0 01-1.227 0v-1.88a.613.613 0 011.227 0v1.88zm2.625 0a.613.613 0 01-1.227 0v-1.226a.613.613 0 011.227 0v1.226z"/></g><path fill-rule="evenodd" clip-rule="evenodd" d="M16.268 4.568a2.996 2.996 0 00-1.693-.523c-.627 0-1.21.193-1.693.523-.28-.843-.492-1.752-.492-2.383C12.39.98 13.37 0 14.575 0s2.185.98 2.185 2.185c0 .631-.212 1.54-.492 2.383zm-4.722 2.274l.024.006v-.011l-.024.005zm4.972 1.217c-1.333-.33-2.766-.681-4.129-1.013a2.185 2.185 0 114.129 1.013zm4.436 1.103c-.866-.217-2.155-.538-3.618-.9a2.995 2.995 0 00.243-1.425c.87.18 1.762.45 2.308.765.596.344.969.928 1.067 1.56zM9.869 6.439c-.36-.086-.706-.167-1.03-.243a2.19 2.19 0 01-.376-2.667 2.188 2.188 0 013.147-.7c.098.738.338 1.599.61 2.353a3.01 3.01 0 00-.449.774c-.628.113-1.305.278-1.902.483zm10.124.075a3.43 3.43 0 01-.217.114c-.696-.295-1.587-.526-2.397-.672a3.01 3.01 0 00-.449-.774c.262-.727.494-1.553.599-2.273.095-.067.189-.128.278-.18a2.188 2.188 0 012.986.8 2.188 2.188 0 01-.8 2.985z"/><defs><clipPath id="aca"><path transform="translate(0 3.064)" d="M0 0h20.936v20.936H0z"/></clipPath></defs></symbol><symbol id="box" viewBox="0 0 461.1 461.1" xml:space="preserve" xmlns="http://www.w3.org/2000/svg"><style>.adst0{fill:#be1a1d}</style><path class="adst0" d="M325.9 350c-.5-6.8-5.9-12.2-12.7-12.7-7.6.6-13.3 7.2-12.7 14.9.5 6.8 5.9 12.2 12.7 12.7 7.6-.6 13.3-7.2 12.7-14.9zm33.8-11.8c-.5-6.8-5.9-12.2-12.7-12.7-7.6.6-13.3 7.2-12.7 14.9.5 6.8 5.9 12.2 12.7 12.7 7.6-.6 13.3-7.3 12.7-14.9z"/><path class="adst0" d="M461 127.7v-.7c-.2-.4-.4-.9-.6-1.3l-.5-.6-1-1-.6-.5-1-.5h-.3l-173.8-71a7.8 7.8 0 00-6 0l-173.4 69.8h-.4l-1 .5-.6.5-1 1-.5.6c-.3.4-.5.8-.6 1.3v.6c-.1.7-.1 1.3 0 2v64H8c-4.4 0-8 3.6-8 8s3.6 8 8 8v1h90.8v27.4H67.7c-4.4 0-8 3.6-8 8s3.6 8 8 8h31.1v27.4H25c-4.4 0-8 3.6-8 8s3.6 8 8 8h73.8v33.4c0 3.2 2 6.1 5 7.4l173.4 72c.9.3 1.8.5 2.7.6.9 0 1.9-.2 2.7-.6L456 337c3-1.2 4.9-4.1 5-7.4v-200c.1-.6.1-1.3 0-1.9zM280.2 68.3L346 94.6l-149.6 63.3-68.4-28.5 152.2-61.1zm-8.3 321.5l-157.1-65.4v-28.2H148c4.4 0 8-3.6 8-8s-3.6-8-8-8h-33.2v-27.4h76c4.4 0 8-3.6 8-8s-3.6-8-8-8h-76v-27.3h16c4.4 0 8-3.6 8-8s-3.6-8-8-8h-16v-52.2l61.1 25.3 96 40v183.2zm8.3-196.7L217 166.6l149.8-63.5 65.5 26.4-95.4 40-56.7 23.6zm8 196.7V206.6l45-18.7 112-46.7.4 183.1-157.4 65.5z"/></symbol><symbol viewBox="0 0 64 64" id="cargo-truck" xmlns="http://www.w3.org/2000/svg"><g clip-path="url(#aea)"><path d="M63.996 38.706a1.296 1.296 0 00-.004-.044l-.008-.049-.009-.045c-.004-.016-.007-.031-.012-.046a1.552 1.552 0 00-.03-.09.982.982 0 00-.018-.043l-.02-.043a.767.767 0 00-.046-.08l-.028-.042a.836.836 0 00-.06-.076l-.015-.02-7.106-7.741a3.733 3.733 0 00-2.744-1.206H42.41v-10.01a3.729 3.729 0 00-3.724-3.723H26.552c-1.22-6.853-7.49-11.626-14.42-10.977C5.203 5.12-.071 10.973 0 17.933c.074 6.96 5.471 12.701 12.413 13.204v20a3.728 3.728 0 003.724 3.723h2.565a5.792 5.792 0 0011.422 0H46.29a5.792 5.792 0 0011.422 0h2.565A3.728 3.728 0 0064 51.136V38.782l-.001-.023c0-.018-.002-.035-.003-.053zm-10.1-7.593c.502 0 .981.21 1.321.58l5.62 6.125H42.41v-6.705h11.486zM1.93 17.793c0-6.323 5.126-11.45 11.448-11.45 6.323 0 11.449 5.127 11.449 11.45 0 6.322-5.126 11.448-11.449 11.448-6.32-.007-11.441-5.128-11.448-11.449zm12.414 33.343v-20c6.993-.513 12.405-6.332 12.414-13.344 0-.138-.003-.276-.007-.413h11.935c.99 0 1.792.803 1.793 1.793v33.757H30.124a5.792 5.792 0 00-11.422 0h-2.565a1.795 1.795 0 01-1.793-1.793zm10.07 6.62a3.862 3.862 0 11-.001-7.723 3.862 3.862 0 010 7.724zm27.586 0a3.862 3.862 0 110-7.723 3.862 3.862 0 010 7.724zm10.069-6.62a1.795 1.795 0 01-1.793 1.793H57.71a5.793 5.793 0 00-11.422 0H42.41V39.748h19.66v11.388z"/><path d="M18.719 14.57a.965.965 0 00-1.358-.14l-5.693 4.632-2.147-2.514a.966.966 0 00-1.469 1.254l2.759 3.23a.966.966 0 001.344.122l6.425-5.227a.966.966 0 00.139-1.357z"/></g><defs><clipPath id="aea"><path d="M0 0h64v64H0z"/></clipPath></defs></symbol><symbol viewBox="0 0 344.96 344.96" id="check" xmlns="http://www.w3.org/2000/svg"><g data-name="Слой 2"><path class="afcls-1" d="M321.85 86.24l-40-23.11-23.1-40H212.5L172.48 0l-40 23.11H86.24l-23.11 40-40 23.1v46.21L0 172.48l23.11 40v46.21l40 23.11 23.11 40h46.21l40 23.1 40-23.11h46.21l23.11-40 40-23.11V212.5l23.11-40-23.11-40V86.24zM156.91 243.07a16.79 16.79 0 01-23.34 0l-50.45-50.44a16.19 16.19 0 010-22.89l13.35-13.35a16.19 16.19 0 0122.89 0l25.87 25.87 80.34-80.35a16.19 16.19 0 0122.89 0l13.35 13.35a16.19 16.19 0 010 22.89z" data-name="Capa 1"/></g></symbol><symbol class="agsvg-inline--fa agfa-chevron-down agfa-w-14" viewBox="0 0 448 512" id="chevron-down" xmlns="http://www.w3.org/2000/svg"><path d="M207.029 381.476L12.686 187.132c-9.373-9.373-9.373-24.569 0-33.941l22.667-22.667c9.357-9.357 24.522-9.375 33.901-.04L224 284.505l154.745-154.021c9.379-9.335 24.544-9.317 33.901.04l22.667 22.667c9.373 9.373 9.373 24.569 0 33.941L240.971 381.476c-9.373 9.372-24.569 9.372-33.942 0z"/></symbol><symbol viewBox="0 0 12 12" id="close" xmlns="http://www.w3.org/2000/svg"><path d="M6.659 6l5.2-5.203a.468.468 0 10-.662-.663L5.996 5.337.796.134a.468.468 0 10-.664.663L5.333 6l-5.2 5.203a.469.469 0 10.662.663l5.201-5.203 5.201 5.203a.465.465 0 00.663 0 .468.468 0 000-.663z"/></symbol><symbol viewBox="0 0 15 17" id="close-btn" xmlns="http://www.w3.org/2000/svg"><path d="M13.238 0L7.5 6.304 1.763 0 0 1.94l7.5 8.26L15 1.94 13.238 0z"/><path d="M13.238 17L7.5 10.695 1.763 17 0 15.06 7.5 6.8l7.5 8.26L13.238 17z"/></symbol><symbol viewBox="0 0 18 18" id="download" xmlns="http://www.w3.org/2000/svg"><path d="M9.024 14.25a2.243 2.243 0 001.591-.659l2.94-2.941-1.06-1.058-2.726 2.726L9.75 0h-1.5l.02 12.306-2.715-2.715-1.06 1.059 2.94 2.94a2.244 2.244 0 001.59.66z"/><path d="M16.5 12v3.75a.75.75 0 01-.75.75H2.25a.75.75 0 01-.75-.75V12H0v3.75A2.25 2.25 0 002.25 18h13.5A2.25 2.25 0 0018 15.75V12h-1.5z"/></symbol><symbol viewBox="0 0 77 77" id="factory" xmlns="http://www.w3.org/2000/svg"><path d="M38.388 34.29l-1.42-16.956a.902.902 0 00-.898-.827h-6.822a.902.902 0 00-.9.818L26 42.109a6.952 6.952 0 00-6.361 6.918v3.743H8.503a.902.902 0 00-.903.902V73.24a.902.902 0 00.903.903h59.994a.903.903 0 00.903-.903V53.673a.902.902 0 00-.903-.903h-7.74V35.191a.902.902 0 00-.901-.902h-2L56.43 9.217a3.915 3.915 0 002.271-3.55V4.062a.902.902 0 00-.902-.903H46.074a.902.902 0 00-.903.903v1.607a3.914 3.914 0 002.271 3.55l-1.43 25.071h-7.624zm-8.32-15.978h5.172l1.337 15.977h-4.544a.902.902 0 00-.902.902v6.892h-3.316l2.253-23.771zm-8.625 30.715a5.145 5.145 0 015.14-5.14H45.03a5.145 5.145 0 015.14 5.14v3.743H21.442v-3.743zm46.152 23.31H9.405V54.576h58.19v17.763zM58.953 52.77h-6.98v-3.743a6.952 6.952 0 00-6.943-6.944H32.936v-5.99h26.017V52.77zM46.976 4.963h9.921v.705a2.108 2.108 0 01-2.105 2.106h-5.71a2.108 2.108 0 01-2.106-2.106v-.705zm2.253 4.615h5.415l1.404 24.711H47.82l1.41-24.71z"/><path d="M29.075 66.558h6.07a.903.903 0 00.902-.902v-7.283a.903.903 0 00-.903-.902h-6.069a.903.903 0 00-.902.902v7.283a.902.902 0 00.902.902zm.902-7.282h4.265v5.478h-4.264v-5.478zm-13.682 7.282h6.069a.902.902 0 00.902-.902v-7.283a.903.903 0 00-.902-.902h-6.07a.902.902 0 00-.901.902v7.283a.902.902 0 00.902.902zm.902-7.282h4.265v5.478h-4.265v-5.478zm24.659 7.282h6.069a.903.903 0 00.902-.902v-7.283a.903.903 0 00-.902-.902h-6.07a.902.902 0 00-.902.902v7.283a.902.902 0 00.903.902zm.902-7.282h4.264v5.478h-4.264v-5.478zm11.878 7.282h6.069a.903.903 0 00.902-.902v-7.283a.903.903 0 00-.902-.902h-6.069a.903.903 0 00-.902.902v7.283a.902.902 0 00.902.902zm.902-7.282h4.265v5.478h-4.265v-5.478z"/></symbol><symbol viewBox="-1 1 511 511.999" id="factory-machine" xmlns="http://www.w3.org/2000/svg"><path d="M224.066 237.96l-.18 11.384c-.152 9.87 14.778 10.129 14.93.234l.18-11.383c.152-9.851-14.777-10.156-14.93-.234zm-1.828 116.895l-.175 11.383c-.157 9.867 14.773 10.125 14.93.235l.175-11.387c.156-9.898-14.773-10.078-14.93-.23zm46.176-81.895c4.867 0 6.387-3.937 13.371-10.026 7.082-6.868-3.293-17.606-10.39-10.723l-8.176 7.922c-4.832 4.687-1.453 12.828 5.195 12.828zm-85.117 64.638l-4.024 3.902c-7.085 6.863 3.293 17.605 10.391 10.723l4.024-3.903c7.085-6.867-3.293-17.601-10.391-10.722zm7.949-86.641c-6.871-7.086-17.605 3.297-10.723 10.395l3.899 4.023c6.785 6.996 17.683-3.21 10.723-10.395zm70.641 94.34l7.926 8.176c6.87 7.086 17.601-3.297 10.722-10.391l-7.926-8.176c-6.87-7.082-17.601 3.293-10.722 10.39zm32.781-34.613c9.789 0 9.926-14.778.113-14.93-15.297-.238-10.566-.18-11.5-.18-9.789 0-9.93 14.778-.117 14.93 15.3.238 10.57.18 11.504.18zm0 0"/><path d="M30.68 191.703c-34.54 5.188-40.992 52.078-9.758 66.692L132.3 310.504c6.437 22.402 34.226 30.738 51.875 15.098l51.562-4.36c21.805-1.844 22.266-33.726.567-36.242l-50.707-5.887c-5.739-5.738-13.645-9.312-22.371-9.37l-56.079-37.692 74.079-28.438c27.39-10.511 37.195-44.113 20.18-67.672v-36.23h13.663c10.637 0 19.293-8.656 19.293-19.297V62.941h133.512c9.867 0 9.883-14.93 0-14.93H41.137c-14.067 0-25.512-11.445-25.512-25.515a7.569 7.569 0 017.563-7.562h464.308c15.152 0 6.817 33.078-17.95 33.078h-71.808c-9.87 0-9.886 14.93 0 14.93h71.809c22.3 0 40.445-18.145 40.445-40.446C509.992 10.094 499.902 0 487.496 0H23.188C10.78 0 .69 10.094.69 22.496c0 22.3 18.145 40.445 40.446 40.445h51.02v17.473c0 10.64 8.656 19.293 19.296 19.293h13.66v34.547zm-14.227 40.711c-5.488-18.039 14.79-33.394 30.684-22.71 17.261 11.605 75.515 50.76 97.738 65.698-6.277 4.344-10.93 10.88-12.848 18.489-103.53-50.832-110.98-46.38-115.574-61.477zm129.719 71.703c-1.5-10.437 6.726-19.441 16.84-19.441 9.383 0 17.015 7.633 17.015 17.015 0 20.743-30.453 23.461-33.855 2.426zm88.414-4.285c3.91.453 3.82 6.2-.106 6.531l-40.562 3.43a32.067 32.067 0 00.371-14.637zm-41.738-127.004c-3.078 7.844-9.106 13.828-16.973 16.844l-83.871 32.2c-38.895-26.09-36.774-24.84-39.168-26.169a857940.62 857940.62 0 0097.012-59.023c24.355-14.809 53.242 10.035 43 36.148zM107.09 80.414V62.941h112.34v17.473a4.368 4.368 0 01-4.364 4.363H111.453a4.368 4.368 0 01-4.363-4.363zm32.957 19.293h46.426v23.105c-24.356-13.21-46.086 2.231-46.426 2.356zm0 0"/><path d="M461.258 399.707v-44.738c0-78.645-100.23-112.094-147.66-49.688-5.973 7.86 5.906 16.906 11.886 9.035 38.809-51.066 120.844-23.703 120.844 40.653v44.246H311.813c.519-41.445-1.297-47.61 2.066-60.852 2.43-9.562-12.04-13.254-14.473-3.672-4.05 15.957-1.941 24.786-2.523 64.524H56.89C25.797 399.215.5 424.512.5 455.609.5 486.703 25.797 512 56.89 512h396.903c31.094 0 56.39-25.297 56.39-56.39 0-28.567-21.343-52.239-48.925-55.903zm-7.465 97.36H56.891c-22.86 0-41.457-18.598-41.457-41.458s18.597-41.46 41.457-41.46h396.902c22.863 0 41.46 18.601 41.46 41.46s-18.6 41.457-41.46 41.457zm0 0"/><path d="M453.793 427.125H56.891c-15.703 0-28.48 12.777-28.48 28.48 0 15.707 12.776 28.485 28.48 28.485h396.906c15.703-.004 28.476-12.778 28.476-28.485 0-15.699-12.773-28.476-28.48-28.48zm-285.422 28.484c0-7.472 6.078-13.55 13.55-13.55 7.47 0 13.548 6.078 13.548 13.55s-6.078 13.547-13.547 13.547c-7.473 0-13.55-6.074-13.55-13.547zm-11.496 13.547H81.938c4.535-8.347 4.625-18.582 0-27.097h74.937c-4.535 8.351-4.629 18.582 0 27.097zm50.094-27.097h96.746c-4.535 8.351-4.625 18.582 0 27.097h-96.746c4.535-8.347 4.625-18.582 0-27.097zm108.246 13.55c0-7.472 6.078-13.55 13.547-13.55 7.472 0 13.55 6.078 13.55 13.55s-6.078 13.547-13.55 13.547c-7.469 0-13.547-6.074-13.547-13.547zm38.594-13.55h74.937c-4.543 8.367-4.617 18.597 0 27.097H353.81c4.535-8.347 4.629-18.582 0-27.097zm-310.47 13.55c0-7.472 6.079-13.55 13.552-13.55s13.55 6.078 13.55 13.55-6.078 13.547-13.55 13.547-13.551-6.078-13.551-13.547zm410.454 13.547c-7.473 0-13.55-6.078-13.55-13.547s6.077-13.55 13.55-13.55c7.473 0 13.55 6.078 13.55 13.55 0 7.47-6.081 13.547-13.55 13.547zm0 0"/></symbol><symbol viewBox="0 0 24 24" id="fb" xmlns="http://www.w3.org/2000/svg"><path d="M13.397 20.997v-8.196h2.765l.411-3.209h-3.176V7.548c0-.926.258-1.56 1.587-1.56h1.684v-2.86A22.108 22.108 0 0014.201 3c-2.444 0-4.122 1.492-4.122 4.231v2.355H7.332v3.21h2.753v8.201h3.312z"/></symbol><symbol viewBox="0 0 14 14" id="filter" xmlns="http://www.w3.org/2000/svg"><path d="M4.318 5.413L1.11 2.205C.48 1.575.926.498 1.817.498H12.99c.891 0 1.337 1.077.707 1.707l-3.208 3.208a1 1 0 00-.293.707V9a1 1 0 01-.292.708l-3.585 3.585c-.63.63-1.707.183-1.707-.707V6.12a1 1 0 00-.293-.707z"/></symbol><symbol viewBox="0 0 512 512" id="handcraft" xmlns="http://www.w3.org/2000/svg"><g data-name="/ OUTLINE"><path d="M32 468a12.014 12.014 0 0112-12h20v-16H44a28 28 0 000 56h148v-16H44a12.014 12.014 0 01-12-12zM314.308 42.373l31.995-31.995 11.312 11.312-31.995 31.995zm15.995 39.999l47.992-47.992 11.312 11.312-47.992 47.992zm7.994 47.995l47.992-47.992 11.312 11.312-47.992 47.992z"/><path d="M385.657 337.657a24.965 24.965 0 00-16.71-42.605 24.952 24.952 0 00-24-24 24.952 24.952 0 00-24-24 24.748 24.748 0 00-4.49-13.368 37.093 37.093 0 0013.973-8.8l3.982-3.982 18.728 31.214 13.72-8.232-24-40a8 8 0 00-12.517-1.54l-11.227 11.226a21.333 21.333 0 01-27.122 2.52l32.737-33.244a15.887 15.887 0 0111.339-4.774 15.711 15.711 0 0111.375 4.686l58.212 58.212a7.948 7.948 0 012.343 5.657v48.968a23.843 23.843 0 007.03 16.97l75.313 75.314 11.314-11.314-75.314-75.313a7.948 7.948 0 01-2.343-5.657v-48.968a23.843 23.843 0 00-7.03-16.97l-58.212-58.212a31.775 31.775 0 00-22.624-9.373h-.126a31.779 31.779 0 00-22.678 9.547l-1.19 1.208L275.314 136l31.03-31.03a24 24 0 000-33.94L256.97 21.657a24 24 0 00-33.94 0l-97.373 97.373a24 24 0 000 33.94l49.373 49.373a23.822 23.822 0 0012.672 6.641L176 220.687l-26.343-26.344a8 8 0 00-11.314 0l-7.029 7.03a32.01 32.01 0 00-8.271 30.892 23.821 23.821 0 00-13.386 6.765l-36.284 36.284A31.79 31.79 0 0064 297.941v12.118a31.79 31.79 0 009.373 22.627L76.687 336l-8 8H48a8 8 0 00-7.353 4.849l-24 56a8 8 0 001.696 8.808l16 16a8 8 0 008.808 1.696l56-24A8 8 0 00104 400v-20.687l8-8 .97.971A39.736 39.736 0 00141.256 384h15.432l117.656 117.657 11.314-11.314-120-120A7.999 7.999 0 00160 368h-18.745a23.845 23.845 0 01-16.97-7.03l-39.599-39.597A15.895 15.895 0 0180 310.059v-12.118a15.895 15.895 0 014.686-11.314l36.284-36.284a7.948 7.948 0 015.657-2.343h6.06l37.656 37.657 11.314-11.314-39.03-39.029a16.001 16.001 0 010-22.628l1.373-1.373 69.657 69.657a7.948 7.948 0 012.343 5.657V336a7.999 7.999 0 002.343 5.657l160 160 11.314-11.314L232 332.687v-46.06a23.816 23.816 0 00-4.85-14.464l19.193-19.193a24.027 24.027 0 000-33.94l-17.373-17.373a23.85 23.85 0 00-12.69-6.624l15.72-15.72 45.656 45.57a37.465 37.465 0 003.471 3.054 25.323 25.323 0 00-2.784 2.406l-32 32a24.965 24.965 0 0016.71 42.605 24.952 24.952 0 0024 24 24.988 24.988 0 0033.152 22.645 24.99 24.99 0 0034.869 14.794l135.27 135.27 11.313-11.314L367.313 356zM88 347.313L100.687 360l-10.344 10.343A7.999 7.999 0 0088 376v18.725l-46.173 19.788-8.34-8.34L53.275 360H72a7.999 7.999 0 005.657-2.343zM234.343 32.97a8.009 8.009 0 0111.314 0l49.373 49.373a8.009 8.009 0 010 11.314L280 108.687 219.313 48zm-48 158.06l-49.373-49.373a8.009 8.009 0 010-11.314l15.03-15.03L212.687 176l-15.03 15.03a8.009 8.009 0 01-11.314 0zm31.314 21.94l17.373 17.373a8 8 0 010 11.314L216 260.687 187.313 232l19.03-19.03a8 8 0 0111.314 0zM224 164.687L163.313 104 208 59.313 268.687 120zm56.387 40.386L243.313 168 264 147.313l36.914 36.915zM264 288.971a8.97 8.97 0 01-6.343-15.314l32-32a8.97 8.97 0 0112.686 12.686l-32 32a8.912 8.912 0 01-6.343 2.628zm24 24a8.97 8.97 0 01-6.343-15.314l32-32a8.97 8.97 0 0112.686 12.686l-32 32a8.912 8.912 0 01-6.343 2.628zm30.343 21.372a8.97 8.97 0 01-12.686-12.686l32-32a8.97 8.97 0 0112.686 12.686zm32 16a8.97 8.97 0 01-12.686-12.686l24-24a8.97 8.97 0 0112.686 12.686zM65.161 124.02l13.712-8.24 24.024 39.978-13.712 8.24zM22.49 175.812l3.137-15.696 40.016 7.996-3.136 15.696zm13.482 49.205l39.978-24.024 8.24 13.712-39.978 24.024z"/><path d="M125.567 415.457l5.056-15.184 24.008 7.994-5.056 15.184zm-35.282 38.162l11.312-11.312 15.997 15.997-11.312 11.312zm39.997-7.994l11.312-11.312 15.997 15.997-11.312 11.312zM456 240h16a40.045 40.045 0 00-40-40v16a24.027 24.027 0 0124 24zm24-32h16a32.036 32.036 0 00-32-32v16a16.018 16.018 0 0116 16z"/></g></symbol><symbol viewBox="0 0 512 512" id="handshake" xmlns="http://www.w3.org/2000/svg"><path d="M512 174.4c0-7.8-2.3-15.7-7.4-22.2L464 100.3c-6.8-8.6-17.1-13-27.5-13-6.1 0-12.4 1.6-17.9 5L379 116.9c-4.2 2.7-11.3 4.5-18.2 4.4-5.4 0-10.5-1-13.9-2.7l-38.7-18.8c-6.2-3-13.2-4.2-20.2-4.3-10.1 0-20.2 2.5-28.4 8.2l-4.5 3.2c-3.6-1.8-9.1-4.6-15.4-7.7-7.5-3.7-16.3-5.2-25.2-5.2-8 0-16.1 1.3-23.2 4.2l-26.4 11.3c-4.3 1.9-11.1 3.1-17.9 3-6.8 0-13.6-1.2-17.9-3l-26.4-11.3c-4.8-2.1-10-2.9-15.1-2.9-5.9 0-11.7 1.2-17.1 3.4-5.4 2.2-10.5 5.5-14.5 10L8 162.6c-5.3 6-8 13.4-8 20.8 0 8.8 3.8 17.6 11 23.8l44.8 38.3-21.3 22.2c-5.9 6.1-8.8 14.1-8.8 21.9 0 8.3 3.3 16.8 9.9 23l4.3 4.1c4.1 3.9 9 6.3 14.1 7.6-2.6 4.7-4 9.9-4 15.1 0 8.4 3.3 16.8 9.9 23l4.3 4.1c6.2 5.8 14.2 8.8 22 8.7 4.2 0 8.5-.8 12.4-2.5 1.4 5.7 4.3 11.1 8.8 15.4l4.3 4.1c6.2 5.8 14.1 8.8 22 8.7 6.2 0 12.4-1.8 17.7-5.3 1.6 5 4.2 9.8 8.3 13.6l4.3 4.1c6.1 5.8 14.1 8.8 22 8.7 8.4 0 16.8-3.3 23.1-9.8l18.8-19.6 25.5 23.6c6.1 5.7 14 8.5 21.7 8.5 8.5 0 17.1-3.4 23.4-10.1l4.1-4.4c3.5-3.8 5.8-8.3 7.2-12.9l9.9 9.1c6.1 5.6 14 8.5 21.7 8.5 8.5 0 17.1-3.4 23.4-10.1l4.1-4.4c4.7-5 7.3-11.2 8.1-17.5 2.6.7 5.3 1.1 7.9 1.1 8.5 0 17.1-3.4 23.4-10.1l4.1-4.4c5.7-6.1 8.5-13.9 8.5-21.6 0-2.4-.3-4.8-.9-7.1 7.1-.9 13.9-4.1 19.1-9.7l4.1-4.4c5.7-6.1 8.5-13.9 8.5-21.6 0-8.5-3.4-17-10.2-23.3l-7.6-7 68.8-76.1c6.4-6.8 9.3-15.6 9.3-24.3zM62 308.1c-3.6 0-7.2-1.3-10-4l-4.3-4.1c-3-2.8-4.5-6.6-4.5-10.5 0-3.6 1.3-7.2 4-9.9l43.6-45.5c2.8-3 6.6-4.4 10.5-4.4 3.6 0 7.2 1.3 10 4l4.3 4.1s4.5 6.6 4.5 10.5c0 2.9-.9 5.7-2.6 8.2-.1.1-47 49-47 49-2.5 1.6-5.5 2.6-8.5 2.6zm34.8 45.3c-2.8 3-6.6 4.4-10.5 4.4-3.6 0-7.2-1.3-10-4l-4.3-4.1c-3-2.8-4.5-6.6-4.5-10.5 0-3.6 1.3-7.2 4-9.9 0 0 58.1-60.5 58.6-61 2.8-2.7 6.4-4 10-4.1 3.6 0 7.2 1.3 10 4l4.3 4.1c3 2.8 4.5 6.6 4.5 10.5 0 3.6-1.3 7.2-4 10l-58.1 60.6zm47.6 25.7c-2.8 3-6.6 4.4-10.5 4.4-3.6 0-7.2-1.3-10-4l-4.3-4.1c-3-2.8-4.5-6.6-4.5-10.5 0-3.2 1.1-6.4 3.2-9l40.5-42.2c2.7-2.5 6.1-3.8 9.7-3.8 3.6 0 7.2 1.3 10 4l4.3 4.1c3 2.8 4.5 6.6 4.5 10.4 0 3.6-1.3 7.2-4 10l-38.9 40.7zm76.9-4.4l-24.5 25.6c-2.8 3-6.6 4.4-10.5 4.4-3.6 0-7.2-1.3-10-4l-4.3-4.1c-3-2.8-4.5-6.6-4.5-10.5 0-3.6 1.3-7.2 4-9.9l24.5-25.6c2.8-3 6.6-4.4 10.5-4.4 3.6 0 7.2 1.3 10 4l4.3 4.1c3 2.8 4.4 6.6 4.5 10.4 0 3.7-1.4 7.2-4 10zm213.2-69.5c0 3.6-1.3 7-3.9 9.8l-4.1 4.4c-2.8 3-6.7 4.6-10.6 4.6-3.6 0-7.1-1.3-9.9-3.8l-68.5-63.4-11.9 12.7 73.4 68c3.1 2.8 4.6 6.7 4.6 10.6 0 3.6-1.3 7.1-3.9 9.8l-4.1 4.4c-2.8 3-6.7 4.6-10.6 4.6-3.6 0-7.1-1.3-9.9-3.8l-68.6-63.4-11.8 12.7 60.8 56.3c2.9 2.8 4.4 6.6 4.4 10.4 0 3.6-1.3 7-3.8 9.8l-4.1 4.4c-2.8 3-6.7 4.6-10.6 4.6-3.6 0-7.1-1.3-9.9-3.8L271 337.7l-11.8 12.7.2.2 30.4 28.1c2.7 2.8 4.1 6.3 4.1 10 0 3.5-1.3 7-3.8 9.8l-4.1 4.4c-2.8 3-6.7 4.6-10.6 4.6-3.6 0-7.1-1.3-9.9-3.8L239 379.2c2.3-4.5 3.6-9.4 3.6-14.3 0-8.3-3.3-16.8-9.9-23l-4.3-4.1c-6.1-5.8-14.1-8.8-22-8.7-.6 0-1.2.1-1.8.2v-.4c0-8.3-9.9-23-9.9-23l-4.3-4.1c-4.6-4.4-10.2-7.1-16.1-8.2 1.2-3.4 1.9-7 1.9-10.5 0-8.3-3.3-16.8-9.9-23L162 256c-6.2-5.8-14.1-8.8-22-8.8-.9 0-1.8.2-2.7.3-.2-8-3.5-16-9.8-22l-4.3-4.1c-6.2-5.8-14.1-8.8-22-8.8-8.4 0-16.8 3.3-23.1 9.8l-10.3 10.7-45.6-38.9c-3.3-2.8-4.9-6.7-4.9-10.7 0-3.3 1.1-6.6 3.6-9.3L69 120.4c1.9-2.1 4.7-4.1 8-5.4 3.3-1.3 7.1-2.1 10.6-2.1 3.1 0 5.9.6 8.2 1.5l26.4 11.3c7.4 3.1 16.1 4.4 24.8 4.5 8.7 0 17.3-1.3 24.8-4.4l26.4-11.3c4.1-1.8 10.2-2.9 16.3-2.9 6.7 0 13.5 1.4 17.4 3.4 2.5 1.2 4.9 2.4 7 3.5L212 137.4c-8.6 6.1-13.3 15.7-13.3 25.5 0 6.5 2 13 6.2 18.6l3.6 4.8c6.7 9 17.3 13.6 27.8 13.6 5.9 0 12-1.5 17.4-4.7l16.1-9.7c3.3-2 8.2-3.3 13.4-3.3 6 0 12.1 1.7 15.7 4.4l44.5 31.9c9.9 7.1 26 20.3 35 28.5l51.5 47.6c3.1 2.8 4.6 6.7 4.6 10.6zM490 187.1L421.4 263l-31.2-28.8c-9.8-9-25.9-22.2-36.7-29.9L309 172.4c-7.5-5.3-16.8-7.7-25.9-7.7-7.8 0-15.6 1.7-22.4 5.7l-16.1 9.7c-2.5 1.5-5.4 2.2-8.4 2.2-5.4 0-10.8-2.5-13.8-6.6l-3.5-4.8c-1.9-2.5-2.8-5.4-2.8-8.3 0-4.4 2-8.6 5.9-11.4l47.6-33.4c4.1-3 11.4-5.1 18.4-5 4.8 0 9.4.9 12.6 2.5l38.7 18.8c6.6 3.2 14.1 4.5 21.6 4.5 9.6 0 19.4-2.1 27.4-7.1l39.6-24.6c2.5-1.6 5.6-2.4 8.7-2.4 5.3 0 10.7 2.4 13.7 6.4l40.6 51.9c2.3 3 3.7 7.2 3.7 11.5 0 4.9-1.7 9.7-4.6 12.8z"/></symbol><symbol viewBox="0 0 24 24" id="instagram" xmlns="http://www.w3.org/2000/svg"><path d="M11.999 7.377a4.624 4.624 0 100 9.248 4.624 4.624 0 000-9.248zm0 7.627a3.004 3.004 0 110-6.008 3.004 3.004 0 010 6.008zm4.807-6.719a1.078 1.078 0 100-2.156 1.078 1.078 0 000 2.156z"/><path d="M20.533 6.11A4.605 4.605 0 0017.9 3.48a6.607 6.607 0 00-2.186-.42c-.963-.042-1.268-.054-3.71-.054s-2.755 0-3.71.054a6.554 6.554 0 00-2.184.42 4.6 4.6 0 00-2.633 2.63 6.585 6.585 0 00-.419 2.186c-.043.962-.056 1.267-.056 3.71 0 2.442 0 2.753.056 3.71.015.748.156 1.486.419 2.187a4.61 4.61 0 002.634 2.632 6.583 6.583 0 002.185.45c.963.042 1.268.055 3.71.055s2.755 0 3.71-.055a6.616 6.616 0 002.186-.42 4.613 4.613 0 002.633-2.632c.263-.7.404-1.438.419-2.186.043-.962.056-1.267.056-3.71s0-2.753-.056-3.71a6.583 6.583 0 00-.421-2.217zm-1.218 9.533a5.046 5.046 0 01-.311 1.688 2.987 2.987 0 01-1.712 1.71c-.535.2-1.1.305-1.67.312-.95.044-1.218.055-3.654.055-2.438 0-2.687 0-3.655-.055a4.961 4.961 0 01-1.67-.311 2.984 2.984 0 01-1.718-1.711 5.08 5.08 0 01-.311-1.67c-.043-.95-.053-1.217-.053-3.653 0-2.437 0-2.686.053-3.655a5.038 5.038 0 01.311-1.687c.305-.79.93-1.41 1.719-1.712a5.01 5.01 0 011.669-.311c.95-.043 1.218-.055 3.655-.055s2.687 0 3.654.055a4.96 4.96 0 011.67.31 2.99 2.99 0 011.712 1.713 5.06 5.06 0 01.311 1.669c.043.95.054 1.218.054 3.655 0 2.436 0 2.698-.043 3.654h-.011v-.001z"/></symbol><symbol viewBox="0 0 9 6" id="link-arrow" xmlns="http://www.w3.org/2000/svg"><path d="M7.942 0L4.5 3.708 1.058 0 0 1.142 4.5 6 9 1.142 7.942 0z"/></symbol><symbol viewBox="0 0 47 47" id="more" xmlns="http://www.w3.org/2000/svg"><path d="M45.043 21.543a1.953 1.953 0 00-1.956 1.956c0 10.801-8.787 19.587-19.587 19.587-10.8 0-19.587-8.786-19.587-19.587C3.913 12.7 12.7 3.913 23.5 3.913c5.899 0 11.366 2.6 15.069 7.07h-6.763a1.952 1.952 0 00-1.956 1.956c0 1.084.873 1.957 1.956 1.957H42.8a1.953 1.953 0 001.956-1.957V1.956A1.953 1.953 0 0042.8 0a1.953 1.953 0 00-1.957 1.956v5.66A23.428 23.428 0 0023.5 0C10.541 0 0 10.54 0 23.5 0 36.457 10.541 47 23.5 47S47 36.458 47 23.5a1.953 1.953 0 00-1.957-1.957z"/></symbol><symbol viewBox="0 0 52 64" id="pasport" xmlns="http://www.w3.org/2000/svg"><path d="M.209 46.621L.015 6.387C-.001 2.927 2.798.108 6.267.092L25.482 0c.027 0 .054 0 .08.003l.29.028a.812.812 0 01.491.228l13.899 13.7a.814.814 0 01.24.57v.23l.105 18.413 10.98 5.836c.263.14.428.414.428.711v7.889a16.862 16.862 0 01-10.359 15.544l-1.762.76a.81.81 0 01-.642-.001l-1.565-.68a16.935 16.935 0 01-9.395-10.482l-21.75.107H6.49a6.252 6.252 0 01-4.42-1.814 6.219 6.219 0 01-1.861-4.42zm50.172-6.42L39.6 34.472l-10.47 5.725v7.572a15.283 15.283 0 009.184 13.987l1.242.54L41 61.674l.006-.003a15.256 15.256 0 009.376-14.063zM26.563 2.74l.031 6.424a4.668 4.668 0 004.668 4.634h.023l6.464-.03zM1.63 6.379l.194 40.234a4.662 4.662 0 004.667 4.634h.024l21.345-.106a16.756 16.756 0 01-.344-3.373v-8.05c0-.293.16-.564.419-.705l11.038-6.034-.1-17.609-7.58.037h-.03c-3.457-.005-6.262-2.79-6.282-6.236l-.037-7.56-18.668.09A4.643 4.643 0 002.98 3.08a4.621 4.621 0 00-1.35 3.299zm21.43 24.144a.806.806 0 01-.808.804h-2.737a.805.805 0 110-1.61h2.737c.446 0 .807.361.807.806zM8.155 23.696c0-.444.362-.804.807-.804h22.723a.806.806 0 110 1.61H8.963a.806.806 0 01-.807-.806zm0 6.827c0-.445.362-.805.807-.805h7.083a.806.806 0 010 1.61H8.963a.806.806 0 01-.807-.805zM38.05 50.208l6.49-5.266a.808.808 0 011.126.124.804.804 0 01-.108 1.125l-7.1 5.762a.808.808 0 01-1.123-.102l-3.049-3.561a.804.804 0 01.463-1.321.81.81 0 01.764.275z"/></symbol><symbol id="payment" viewBox="0 0 512 512" xml:space="preserve" xmlns="http://www.w3.org/2000/svg"><style>.aust0{fill:#bb1b1e}</style><path class="aust0" d="M433.8 389.6c-3.8 0-6.9-3.1-6.9-6.9 0-1.2.3-2.4.9-3.4 58-100.6 23.5-229.3-77.2-287.3-8.6-4.9-17.5-9.3-26.7-13-3.5-1.4-5.3-5.5-3.9-9s5.5-5.3 9-3.9c115 46.2 170.7 176.7 124.6 291.6-3.9 9.8-8.6 19.3-13.8 28.5-1.3 2.1-3.6 3.4-6 3.4zM245.7 498.2c-80-.2-153.9-42.8-194-112-2.1-3.2-1.1-7.5 2.1-9.6 3.2-2 7.5-1.1 9.6 2.1.1.2.2.3.3.5 58.1 100.5 186.6 135 287.2 76.9 14.7-8.5 28.3-18.7 40.6-30.5 2.8-2.7 7.1-2.6 9.8.2 2.7 2.8 2.6 7.1-.2 9.8-41.8 40.2-97.4 62.7-155.4 62.6zM34 329.3c-3.2 0-6-2.2-6.7-5.4C-.1 203.2 75.6 83.1 196.4 55.7c16.2-3.7 32.7-5.5 49.3-5.5 3.8 0 6.9 3.1 6.9 6.9s-3.1 6.9-6.9 6.9c-116.1.1-210.2 94.4-210.1 210.5 0 15.6 1.8 31.1 5.2 46.3.9 3.7-1.5 7.4-5.2 8.3-.5.2-1 .2-1.6.2z"/><path class="aust0" d="M209.4 100.3c-3.8 0-6.9-3.1-6.9-6.9 0-1.8.7-3.6 2-4.9l31.4-31.4-31.4-31.4c-2.7-2.7-2.7-7.1 0-9.8s7.1-2.7 9.8 0l36.3 36.3c2.7 2.7 2.7 7.1 0 9.8l-36.3 36.3c-1.3 1.3-3 2-4.9 2zM44.5 439.2c-.6 0-1.2-.1-1.8-.2-3.7-1-5.9-4.8-4.9-8.5l13.3-49.6c1-3.7 4.8-5.9 8.4-4.9l49.6 13.3c3.7.9 6 4.6 5.2 8.3-.9 3.7-4.6 6-8.3 5.2-.1 0-.3-.1-.4-.1l-42.9-11.5-11.5 42.9c-.9 3-3.6 5.1-6.7 5.1zm389.2-49.6c-3.1 0-5.9-2.1-6.7-5.1l-13.3-49.6c-.9-3.7 1.4-7.4 5.2-8.3 3.6-.8 7.1 1.2 8.2 4.7l11.5 42.9 42.9-11.5c3.7-1 7.5 1.2 8.4 4.9 1 3.7-1.2 7.4-4.9 8.4l-49.6 13.3c-.5.2-1.1.3-1.7.3zm-184.6 19.8c-75.2 0-136.1-60.9-136.1-136.1s60.9-136.1 136.1-136.1 136.1 60.9 136.1 136.1c-.1 75.1-61 136-136.1 136.1zm0-258.3c-67.5 0-122.2 54.7-122.2 122.2s54.7 122.2 122.2 122.2 122.2-54.7 122.2-122.2c-.1-67.5-54.7-122.2-122.2-122.2z"/><path id="auXMLID_449_" class="aust0" d="M259.4 278.2c18.9 0 34.3-15.4 34.3-34.3s-15.4-34.3-34.3-34.3h-28.2c-3.3 0-6 2.7-6 6v74.5h-6c-3.3 0-6 2.7-6 6s2.7 6 6 6h6v34.3c0 3.3 2.7 6 6 6s6-2.7 6-6v-34.3h22.2c3.3 0 6-2.7 6-6s-2.7-6-6-6h-22.2V278h22.2v.2zm0-56.5h.2c12.1.1 22 10 22 22.2s-9.9 22.2-22.2 22.2h-22.2v-44.3h22.2v-.1z"/></symbol><symbol viewBox="0 0 22 22" id="phone" xmlns="http://www.w3.org/2000/svg"><path d="M19.1 14.9l-2.5-2.5c-.6-.6-1.5-.6-2.1 0L13 13.8c-.1.1-.3.1-.4 0-.8-.6-1.5-1.2-2.2-1.9-.6-.6-1.2-1.3-1.7-2-.1-.1-.1-.3 0-.4L10.2 8c.6-.6.6-1.5 0-2.1L7.7 3.4c-.6-.6-1.5-.6-2.1 0l-.8.8c-1.2 1.2-1.6 3-1.1 4.6.4 1.2.9 2.3 1.6 3.4.6 1 1.3 1.8 2.2 2.6.9.9 1.8 1.7 2.9 2.4 1.1.8 2.4 1.3 3.7 1.7.3.1.7.1 1 .1 1.2 0 2.4-.5 3.2-1.4l.7-.7c.6-.5.6-1.5.1-2zm-.7 1.4l-.7.7c-.9.9-2.2 1.3-3.4 1s-2.4-.9-3.5-1.6c-1-.6-1.9-1.4-2.7-2.2s-1.4-1.6-2-2.5c-.7-1-1.2-2-1.5-3.1-.4-1.3-.1-2.8.9-3.7l.8-.8c.2-.2.6-.2.8 0l2.5 2.5c.2.2.2.6 0 .8L8.1 8.9c-.4.4-.4 1.1-.1 1.6.5.7 1.1 1.4 1.8 2.1.7.7 1.5 1.4 2.3 2 .5.3 1.1.3 1.6-.1l1.4-1.5c.2-.2.6-.2.8 0l2.5 2.6c.2.1.2.5 0 .7z"/></symbol><symbol viewBox="0 0 47 47" id="plus-load" xmlns="http://www.w3.org/2000/svg"><path d="M45.043 21.543a1.953 1.953 0 00-1.957 1.957c0 10.8-8.786 19.586-19.586 19.586-10.8 0-19.587-8.786-19.587-19.586C3.913 12.7 12.7 3.913 23.5 3.913c5.899 0 11.366 2.6 15.069 7.07h-6.763a1.953 1.953 0 00-1.956 1.956c0 1.084.872 1.957 1.956 1.957H42.8a1.952 1.952 0 001.956-1.957V1.956A1.952 1.952 0 0042.8 0a1.952 1.952 0 00-1.957 1.956v5.66A23.427 23.427 0 0023.5 0C10.54 0 0 10.54 0 23.5 0 36.458 10.54 47 23.5 47 36.458 47 47 36.457 47 23.5a1.953 1.953 0 00-1.957-1.957z"/></symbol><symbol viewBox="0 0 13 22" id="project-slider-arrow" xmlns="http://www.w3.org/2000/svg"><path d="M.834 1.91L1.936.807l9.215 9.216.076-.076 1.067 1.067L1.68 21.63.614 20.562l9.434-9.436z"/></symbol><symbol id="quality" viewBox="0 0 512 512" xml:space="preserve" xmlns="http://www.w3.org/2000/svg"><style>.ayst0{fill:#be1a1d}</style><g id="ayXMLID_1364_"><g id="ayXMLID_141_"><path id="ayXMLID_162_" class="ayst0" d="M456.8 449L392 336.8c10.7-9 18.2-21.9 20.2-36.5 1.3-9.9 6.4-18.7 14.4-24.9 20.5-15.9 28-43.7 18.1-67.7-3.8-9.3-3.8-19.5 0-28.7 9.8-24 2.4-51.9-18.1-67.7-7.9-6.1-13-15-14.4-24.9-3.5-25.7-23.9-46.1-49.6-49.6-9.9-1.3-18.7-6.4-24.9-14.4C321.9 1.9 294-5.5 270 4.3c-9.3 3.8-19.5 3.8-28.7 0-24-9.8-51.9-2.4-67.7 18.1-6.1 7.9-15 13-24.9 14.4-25.7 3.5-46.1 23.9-49.6 49.6-1.3 9.9-6.4 18.7-14.4 24.9-20.5 15.9-28 43.7-18.1 67.7 3.8 9.3 3.8 19.5 0 28.7-9.8 24-2.4 51.9 18.1 67.7 7.9 6.1 13 15 14.4 24.9 2 14.8 9.6 27.8 20.6 36.8L55.2 449c-2 3.5-1.7 7.9.7 11.1 2.5 3.2 6.6 4.6 10.5 3.6l56.3-15.1 15 56c1 3.9 4.3 6.8 8.4 7.3.4.1.9.1 1.3.1 3.5 0 6.9-1.9 8.7-5l69.7-120.7c5.3-.6 10.5-1.9 15.6-3.9 9.3-3.8 19.5-3.8 28.7 0 5.3 2.2 10.8 3.5 16.3 4L356 507c1.8 3.1 5.1 5 8.7 5 .4 0 .9 0 1.3-.1 4-.5 7.3-3.4 8.4-7.3l15-56 56.3 15.1c3.9 1 8.1-.4 10.5-3.6 2.4-3.3 2.7-7.6.6-11.1zm-306 27.1l-11.4-42.4c-.7-2.6-2.4-4.7-4.7-6.1s-5-1.7-7.6-1L84.5 438l52.6-91c3.7 1.3 7.6 2.3 11.6 2.8 9.9 1.3 18.7 6.4 24.9 14.4 7.8 10 18.4 16.9 30.1 20.2l-52.9 91.7zm82.9-112.2c-15.7 6.4-33.9 1.5-44.3-11.9-9.4-12.1-22.8-19.9-38-21.9-16.8-2.3-30.2-15.6-32.5-32.5-2.1-15.1-9.8-28.6-21.9-38-13.4-10.4-18.3-28.6-11.9-44.3 5.8-14.1 5.8-29.7 0-43.9-6.4-15.7-1.5-33.9 11.9-44.3 12.1-9.4 19.9-22.8 21.9-38 2.3-16.8 15.6-30.2 32.5-32.5 15.1-2.1 28.6-9.8 38-21.9 7.3-9.5 18.6-14.7 30-14.7 4.8 0 9.7.9 14.3 2.8 14.1 5.8 29.7 5.8 43.9 0 15.7-6.4 33.9-1.5 44.3 11.9 9.4 12.1 22.8 19.9 38 21.9 16.8 2.3 30.2 15.6 32.5 32.5 2.1 15.1 9.8 28.6 21.9 38 13.4 10.4 18.3 28.6 11.9 44.3-5.8 14.1-5.8 29.7 0 43.9 6.4 15.7 1.5 33.9-11.9 44.3-12.1 9.4-19.9 22.8-21.9 38-2.3 16.8-15.6 30.2-32.5 32.5-15.1 2.1-28.6 9.8-38 21.9-10.4 13.4-28.6 18.3-44.3 11.9-14.1-5.8-29.7-5.8-43.9 0zm151.1 62.7c-5.3-1.4-10.8 1.7-12.2 7.1l-11.4 42.4-53-91.8c11.4-3.3 21.9-10.2 29.5-20.1 6.1-7.9 15-13 24.9-14.4 4.2-.6 8.3-1.6 12.1-3l52.7 91.2-42.6-11.4z"/><path id="ayXMLID_1191_" class="ayst0" d="M386 196.7c0-26.6-8-52.1-23-73.9-14.7-21.3-35.1-37.5-59.1-47-5.1-2-10.9.5-13 5.6-2 5.1.5 10.9 5.6 13 42.2 16.7 69.5 56.9 69.5 102.3 0 60.7-49.4 110-110 110s-110-49.4-110-110c0-45.4 27.3-85.6 69.5-102.3 5.1-2 7.6-7.8 5.6-13-2-5.1-7.9-7.6-13-5.6-23.9 9.5-44.4 25.8-59.1 47-15.1 21.8-23 47.3-23 73.9 0 71.7 58.3 130 130 130s130-58.3 130-130z"/><path id="ayXMLID_1218_" class="ayst0" d="M256 86.7c2.6 0 5.2-1.1 7.1-2.9 1.9-1.9 2.9-4.4 2.9-7.1 0-2.6-1.1-5.2-2.9-7.1-1.9-1.9-4.4-2.9-7.1-2.9-2.6 0-5.2 1.1-7.1 2.9S246 74 246 76.7c0 2.6 1.1 5.2 2.9 7.1 1.9 1.8 4.5 2.9 7.1 2.9z"/><path id="ayXMLID_2_" class="ayst0" d="M125.5 196.7c0 26.6 8 52.1 23 73.9 14.7 21.3 35.1 37.5 59.1 47 5.1 2 10.9-.5 13-5.6 2-5.1-.5-10.9-5.6-13-42.2-16.7-69.5-56.9-69.5-102.3 0-60.7 49.4-110 110-110s110 49.4 110 110c0 45.4-27.3 85.6-69.5 102.3-5.1 2-7.6 7.8-5.6 13 2 5.1 7.9 7.6 13 5.6 23.9-9.5 44.4-25.8 59.1-47 15.1-21.8 23-47.3 23-73.9 0-71.7-58.3-130-130-130s-130 58.3-130 130z"/><path id="ayXMLID_1_" class="ayst0" d="M255.5 306.7c-2.6 0-5.2 1.1-7.1 2.9-1.9 1.9-2.9 4.4-2.9 7.1 0 2.6 1.1 5.2 2.9 7.1 1.9 1.9 4.4 2.9 7.1 2.9 2.6 0 5.2-1.1 7.1-2.9s2.9-4.4 2.9-7.1c0-2.6-1.1-5.2-2.9-7.1-1.9-1.8-4.5-2.9-7.1-2.9z"/><path class="ayst0" d="M216.3 181.7c-2.8-3.2-7.6-3.6-10.8-.9-3.2 2.8-3.6 7.6-.9 10.8l40.6 47.5c2.7 3.2 7.5 3.6 10.7 1l56.3-69.9c3.3-2.7 3.8-7.5 1.1-10.8-2.7-3.3-7.5-3.8-10.8-1.1L252 223.5l-35.7-41.8z"/></g></g></symbol><symbol viewBox="0 0 50 64" id="quality-header" xmlns="http://www.w3.org/2000/svg"><path d="M49.99 14.046v16.39c0 13.912-8.383 26.468-21.267 31.855l-3.67 1.578a1.2 1.2 0 01-.956-.001l-3.257-1.413C8.19 56.948.011 44.512-.003 30.767V14.046c0-.438.238-.84.623-1.05L24.082.195a1.205 1.205 0 011.143-.007l24.13 12.801a1.2 1.2 0 01.636 1.057zm-2.402.716l-22.92-12.16-22.27 12.151v16.014c.014 12.796 7.629 24.37 19.404 29.495l2.776 1.206 3.196-1.373.008-.004c11.997-5.013 19.803-16.702 19.806-29.656zm-26.2 21.739l13.869-11.233a1.206 1.206 0 011.69.173 1.191 1.191 0 01-.174 1.682L21.994 39.094a1.205 1.205 0 01-1.67-.15l-6.347-7.4a1.192 1.192 0 01.134-1.686 1.206 1.206 0 011.694.133z"/></symbol><symbol viewBox="0 0 1280 1280" id="question" xmlns="http://www.w3.org/2000/svg"><path d="M597 71c-41.7 3.9-76.1 11.3-109.4 23.6-15.4 5.6-40.4 17.8-55 26.7-32.8 20.2-65.1 50.2-87.6 81.7-34 47.5-55.7 106-66 178.3-1.2 8.1-1.9 15.1-1.6 15.6.3.5 4.7 3.4 9.6 6.5l9.1 5.6 67.2 8c37 4.4 68.5 8.1 70.2 8.3l2.9.2 2.8-15C455.8 320 491 264.6 550.7 234.6c26.7-13.3 55.3-19.6 90-19.6 48.5 0 89.9 14.1 125.3 42.7 17.1 13.9 35.7 35.1 46.9 53.7 23.8 39.3 30.2 90.7 16.5 132.6-3.9 12-13.7 30.7-21.5 41-16.6 22.1-41.9 47.9-81.9 83.5-59.5 53.1-86.5 81.3-107.6 112.5-40.8 60.2-57.2 126.2-54.7 220.3l.6 24.7 69.1-.2 69.1-.3.2-10.5c.6-30.2 3.7-70.9 6.9-89.5 5.7-33.6 18.9-63.6 39.3-89 9.4-11.8 45.1-46.7 76.6-75 91.4-82.2 131.2-131.2 152.8-188.2 22.3-58.6 23.5-128.5 3.2-190.1-15-45.3-43.3-88.1-81.6-123.1-54.4-49.8-119-77.5-204.4-87.6-16.2-2-82.8-2.9-98.5-1.5zm-38.9 950c-2 9.8-2.1 12.1-2.1 92v82h162v-82.8c-.1-74-.3-83.6-1.8-91.7l-1.7-9-77.1-.3-77.1-.2-2.2 10z"/></symbol><symbol viewBox="0 0 30 30" id="search" xmlns="http://www.w3.org/2000/svg"><path d="M26.2 25l-5.4-5.4c1.3-1.6 2.1-3.7 2.1-5.9 0-5.1-4.2-9.3-9.3-9.3s-9.3 4.2-9.3 9.3S8.5 23 13.6 23c2.2 0 4.3-.8 5.9-2.1l5.4 5.4c.2.2.4.3.6.3s.4-.1.6-.3c.5-.4.5-.9.1-1.3zm-20-11.2c0-4.2 3.4-7.5 7.5-7.5 4.2 0 7.5 3.4 7.5 7.5s-3.4 7.5-7.5 7.5-7.5-3.4-7.5-7.5z"/></symbol><symbol id="service" viewBox="0 0 75 77" xml:space="preserve" xmlns="http://www.w3.org/2000/svg"><style>.bcst0{fill:#bc1818}</style><path class="bcst0" d="M33.5 39.9h8.4c.3 0 .5-.1.7-.3.2-.2.3-.5.3-.7s-.1-.5-.3-.7c-.2-.2-.5-.3-.7-.3h-7.3V27.5c0-.3-.1-.5-.3-.7-.2-.2-.5-.3-.7-.3-.3 0-.5.1-.7.3-.2.2-.3.5-.3.7v11.2c0 .1 0 .3.1.4 0 .1.1.2.2.3.1.1.2.2.3.2 0 .2.2.2.3.3z"/><path class="bcst0" d="M9.9 38.5c0 12.9 10.4 23.4 23.3 23.6h.3c1.7 0 3.4-.2 5-.6.8 2.4 2.1 4.6 4 6.3 1.8 1.7 4.1 2.9 6.5 3.5 2.4.6 5 .5 7.4-.2 2.4-.7 4.6-2 6.4-3.8 1.8-1.8 3-4 3.7-6.4.7-2.4.7-5 0-7.4-.5-2.4-1.8-4.6-3.5-6.5-1.7-1.8-3.9-3.1-6.3-3.9.3-1.6.5-3.1.5-4.7 0-4.5-1.3-9-3.8-12.8L56 23c.4-.4.7-1 .7-1.6s-.2-1.2-.7-1.6L54.2 18c-.4-.4-1-.7-1.6-.7-.6 0-1.2.2-1.6.7l-2.3 2.3c-3.4-2.9-7.5-4.7-11.9-5.3v-2.9h1.4c.3 0 .6-.1.8-.2.3-.1.5-.3.7-.5.2-.2.4-.4.5-.7.1-.3.2-.6.2-.8V7.5c0-.3 0-.6-.2-.8-.1-.3-.3-.5-.5-.7-.2-.2-.4-.4-.7-.5-.3-.1-.6-.2-.8-.2h-9.5c-.3 0-.6.1-.8.2-.3.1-.5.3-.7.5-.2.2-.4.5-.5.7-.1.3-.2.6-.2.8V10c0 .3 0 .6.2.8.1.3.3.5.5.7.2.2.4.4.7.5.3.1.6.2.8.2h1.4v2.9C18.8 16.7 9.9 26.6 9.9 38.5zM65 57.1c0 2.5-.7 4.9-2.1 6.9-1.4 2.1-3.3 3.7-5.6 4.6-2.3.9-4.8 1.2-7.2.7-2.4-.5-4.6-1.7-6.4-3.4-1.7-1.7-2.9-4-3.4-6.4-.5-2.4-.2-4.9.7-7.2.9-2.3 2.5-4.2 4.6-5.6 2.1-1.4 4.5-2.1 6.9-2.1 3.3 0 6.5 1.3 8.8 3.7 2.3 2.4 3.7 5.5 3.7 8.8zM52.5 19.7c0-.1.1-.1 0 0h.2l1.8 1.8-2.3 2.3-1.8-2.1 2.1-2zm-23.7-9.6l-.1-.1V7.4h9.7v2.7h-9.6zm5.9 2.1v2.7h-2.5v-2.7h2.5zM32.3 17v3.2c0 .3.1.5.3.7.2.2.5.3.7.3.3 0 .5-.1.7-.3.2-.2.3-.5.3-.7V17c11.1.5 20.1 9.5 20.6 20.6h-3.3c-.3 0-.5.1-.7.3-.2.2-.3.5-.3.7 0 .3.1.5.3.7.2.2.5.3.7.3H55c-.1 1-.2 2-.4 3-2.3-.3-4.6-.1-6.8.6s-4.1 2-5.8 3.6c-1.6 1.6-2.8 3.6-3.5 5.8-.7 2.2-.9 4.5-.5 6.8-1.2.3-2.4.4-3.6.5v-3.2c0-.3-.1-.5-.3-.7-.2-.2-.5-.3-.7-.3-.3 0-.5.1-.7.3-.2.2-.3.5-.3.7v3.2c-10.8-.6-19.7-9.4-20.3-20.2h3c.3 0 .5-.1.7-.3.2-.2.3-.5.3-.7 0-.3-.1-.5-.3-.7-.2-.2-.5-.3-.7-.3h-3c.2-5.3 2.4-10.4 6.2-14.2s8.7-6.2 14-6.5z"/><path class="bcst0" d="M52 47l-8 4.6c-.2.1-.3.2-.4.4-.1.2-.1.3-.1.5v9.3c0 .2 0 .4.1.5.1.2.2.3.4.4l8 4.6c.2.1.3.1.5.1s.4 0 .5-.1l8-4.6c.2-.1.3-.2.4-.4s.1-.3.1-.5v-9.3c0-.2 0-.4-.1-.5-.1-.2-.2-.3-.4-.4L53 47c-.2-.1-.3-.1-.5-.1-.2-.1-.4 0-.5.1zm-.6 17.6l-5.9-3.4v-6.8l5.9 3.4v6.8zm8-3.4l-5.9 3.4v-6.8l5.9-3.4v6.8zm-1-8.7l-5.9 3.4-2-1.1 5.9-3.4 2 1.1zm-4.1-2.4l-5.9 3.4-1.8-1.1 5.9-3.4 1.8 1.1z"/></symbol><symbol viewBox="0 0 70.9 70.9" id="shoping-bag" xmlns="http://www.w3.org/2000/svg"><path d="M67.5 11.9H15.4l-.2-.9c-.2-2-1.1-3.7-2.6-5-1.4-1.3-3.3-2-5.3-2H4.2v5.3h3.2c.6 0 1.3.2 1.8.7.5.4.8 1 .9 1.7l4.2 35.6c.2 1.9 1.2 3.7 2.6 5 1.4 1.3 3.3 2 5.3 2H57V49H22c-.6 0-1.3-.2-1.8-.7-.5-.4-.8-1-.9-1.7l-.3-2.9h42.7l5.8-31.8zM57.4 38.3H18.5L16 17.2h45.2l-3.8 21.1zM22.6 56.8c-2.9 0-5.3 2.4-5.3 5.3s2.4 5.3 5.3 5.3 5.3-2.4 5.3-5.3c0-3-2.3-5.3-5.3-5.3zm26.4 0c-2.9 0-5.3 2.4-5.3 5.3s2.4 5.3 5.3 5.3 5.3-2.4 5.3-5.3c0-3-2.3-5.3-5.3-5.3z"/></symbol><symbol viewBox="0 0 16 16" id="telegram" xmlns="http://www.w3.org/2000/svg"><path d="M14.629 3.698l-2.012 9.618c-.152.679-.548.848-1.11.528l-3.066-2.29-1.48 1.442c-.163.166-.3.305-.616.305l.22-3.165 5.683-5.204c.247-.223-.054-.347-.384-.123L4.839 9.29l-3.024-.959c-.658-.208-.67-.667.137-.986L13.78 2.727c.548-.208 1.027.124.849.971z"/></symbol><symbol viewBox="0 0 18 14" id="toggle-icon" xmlns="http://www.w3.org/2000/svg"><path data-name="menu icon" d="M0 2V0h18v2H0zm0 6V6h14v2H0zm0 6v-2h10v2H0z"/></symbol><symbol viewBox="0 0 16 16" id="viber" xmlns="http://www.w3.org/2000/svg"><path d="M8 1.335c-1.071.013-3.374.19-4.662 1.37-.958.948-1.292 2.35-1.331 4.084-.033 1.728-.072 4.973 3.058 5.856v1.346s-.02.538.337.648c.438.14.688-.275 1.105-.72l.778-.879c2.142.178 3.782-.232 3.97-.293.435-.139 2.883-.451 3.283-3.696.41-3.351-.2-5.463-1.301-6.418h-.007c-.332-.306-1.668-1.279-4.652-1.29 0 0-.222-.014-.578-.008zm.037.942a7.02 7.02 0 01.488.011c2.527.007 3.732.767 4.017 1.023.927.794 1.405 2.697 1.055 5.495-.332 2.713-2.317 2.885-2.685 3.002-.156.05-1.6.406-3.42.289 0 0-1.356 1.634-1.78 2.055-.067.074-.146.095-.196.085-.071-.018-.093-.107-.089-.229l.013-2.233c-2.655-.733-2.498-3.5-2.47-4.946.033-1.446.304-2.628 1.113-3.43 1.088-.982 3.043-1.115 3.953-1.122zm.2 1.446a.166.166 0 100 .332 3.136 3.136 0 012.242.883c.606.588.9 1.378.912 2.411 0 .092.074.167.167.167V7.51a.167.167 0 00.168-.165 3.588 3.588 0 00-1.009-2.646c-.66-.645-1.496-.977-2.48-.977zm-2.198.382a.523.523 0 00-.342.067H5.69a2.61 2.61 0 00-.637.523 1.003 1.003 0 00-.256.525.71.71 0 00.026.302l.01.006c.172.504.396.988.67 1.444a8.48 8.48 0 001.29 1.762l.015.022.024.017.015.018.017.015c.532.505 1.127.94 1.769 1.295.734.4 1.18.588 1.447.667v.004c.078.024.15.034.221.034.228-.016.444-.109.613-.262a2.53 2.53 0 00.517-.638v-.004c.128-.241.085-.469-.1-.623-.37-.323-.77-.61-1.195-.857-.285-.155-.574-.061-.69.095l-.25.315c-.129.156-.361.134-.361.134l-.007.004C7.093 8.527 6.63 6.772 6.63 6.772s-.022-.239.139-.36l.312-.252c.15-.122.254-.41.094-.695a7.498 7.498 0 00-.856-1.194.475.475 0 00-.28-.167zm2.486.495c-.221 0-.221.334.003.334A2.098 2.098 0 0110 5.572 1.94 1.94 0 0110.5 7a.168.168 0 00.167.165l.007.009a.169.169 0 00.167-.167c.015-.662-.191-1.218-.595-1.663C9.84 4.9 9.273 4.65 8.549 4.6h-.024zm.274.898c-.228-.006-.236.335-.01.341.55.029.816.306.851.877a.166.166 0 00.165.163h.007a.168.168 0 00.16-.178c-.039-.744-.445-1.164-1.166-1.202H8.8z"/></symbol><symbol viewBox="0 0 24 24" id="vk" xmlns="http://www.w3.org/2000/svg"><path d="M21.579 6.855c.14-.465 0-.806-.662-.806h-2.193c-.558 0-.813.295-.953.619 0 0-1.115 2.719-2.695 4.482-.51.513-.743.675-1.021.675-.139 0-.341-.162-.341-.627V6.855c0-.558-.161-.806-.626-.806H9.642c-.348 0-.558.258-.558.504 0 .528.79.65.871 2.138v3.228c0 .707-.127.836-.407.836-.743 0-2.551-2.73-3.624-5.853-.209-.607-.42-.852-.98-.852H2.752c-.627 0-.752.295-.752.619 0 .582.743 3.462 3.461 7.27 1.812 2.602 4.363 4.012 6.687 4.012 1.393 0 1.565-.313 1.565-.853v-1.966c0-.626.133-.752.574-.752.324 0 .882.164 2.183 1.417 1.486 1.486 1.732 2.153 2.567 2.153h2.192c.626 0 .939-.313.759-.931-.197-.615-.907-1.51-1.849-2.57-.512-.603-1.277-1.253-1.51-1.578-.325-.42-.231-.604 0-.976.001 0 2.672-3.761 2.95-5.04z"/></symbol><symbol viewBox="0 0 55 55" id="warning" xmlns="http://www.w3.org/2000/svg"><path d="M27.5 1C42.136 1 54 12.864 54 27.5 54 42.134 42.136 54 27.5 54S1 42.135 1 27.5C1 12.863 12.864 1 27.5 1z"/><path d="M27.719 26.825l-.126 5.978h-.522l-.126-5.978v-7.6h.774v7.6zm.036 10.22h-.847v-1.766h.847v1.765z"/></symbol><symbol viewBox="0 0 16 16" id="whatsapp" xmlns="http://www.w3.org/2000/svg"><path fill-rule="evenodd" clip-rule="evenodd" d="M12.269 3.755A5.947 5.947 0 008.035 2 5.994 5.994 0 002.05 7.985a5.98 5.98 0 00.799 2.992L2 14.077l3.173-.832c.877.477 1.86.728 2.86.728h.002a5.993 5.993 0 005.533-8.276 5.953 5.953 0 00-1.3-1.942zm-4.234 9.208h-.002c-.89 0-1.765-.24-2.532-.694l-.181-.108-1.883.494.502-1.835-.118-.188a4.965 4.965 0 01-.76-2.647 4.982 4.982 0 016.88-4.597c.604.25 1.152.618 1.613 1.081a4.946 4.946 0 011.455 3.52 4.982 4.982 0 01-4.974 4.974zm2.729-3.726c-.15-.075-.885-.436-1.022-.486-.137-.05-.236-.075-.336.074-.1.15-.387.486-.474.586-.087.1-.175.112-.324.038-.15-.075-.631-.233-1.203-.742a4.505 4.505 0 01-.832-1.036c-.087-.15-.009-.231.066-.306.068-.066.15-.174.224-.262.075-.087.1-.149.15-.249.05-.1.025-.187-.013-.262-.037-.075-.337-.811-.461-1.11-.121-.29-.244-.252-.336-.256a6.418 6.418 0 00-.286-.005.55.55 0 00-.4.186c-.137.15-.523.512-.523 1.248s.536 1.447.61 1.547c.075.1 1.055 1.61 2.555 2.258.358.154.636.246.853.315.358.114.684.098.942.06.287-.043.885-.362 1.01-.711.124-.35.124-.649.087-.711-.038-.063-.138-.101-.287-.176z"/></symbol></svg>