<?xml version="1.0" encoding="utf-8"?>
<!-- Generator: Adobe Illustrator 24.3.0, SVG Export Plug-In . SVG Version: 6.00 Build 0)  -->
<svg version="1.1" id="Capa_1" xmlns="http://www.w3.org/2000/svg" xmlns:xlink="http://www.w3.org/1999/xlink" x="0px" y="0px"
	 viewBox="0 0 461.1 461.1" style="enable-background:new 0 0 461.1 461.1;" xml:space="preserve">
<style type="text/css">
	.st0{fill:#BE1A1D;}
</style>
<g>
	<g>
		<path class="st0" d="M325.9,350c-0.5-6.8-5.9-12.2-12.7-12.7c-7.6,0.6-13.3,7.2-12.7,14.9c0.5,6.8,5.9,12.2,12.7,12.7
			C320.8,364.3,326.5,357.7,325.9,350z"/>
	</g>
</g>
<g>
	<g>
		<path class="st0" d="M359.7,338.2c-0.5-6.8-5.9-12.2-12.7-12.7c-7.6,0.6-13.3,7.2-12.7,14.9c0.5,6.8,5.9,12.2,12.7,12.7
			C354.6,352.5,360.3,345.8,359.7,338.2z"/>
	</g>
</g>
<g>
	<g>
		<path class="st0" d="M461,127.7V127c-0.2-0.4-0.4-0.9-0.6-1.3l-0.5-0.6l-1-1l-0.6-0.5l-1-0.5H457l-173.8-71c-1.9-0.8-4.1-0.8-6,0
			l-173.4,69.8h-0.4l-1,0.5l-0.6,0.5l-1,1l-0.5,0.6c-0.3,0.4-0.5,0.8-0.6,1.3v0.6c-0.1,0.7-0.1,1.3,0,2v64H8c-4.4,0-8,3.6-8,8
			s3.6,8,8,8v1h90.8v27.4H67.7c-4.4,0-8,3.6-8,8s3.6,8,8,8h31.1v27.4H25c-4.4,0-8,3.6-8,8s3.6,8,8,8h73.8v33.4c0,3.2,2,6.1,5,7.4
			l173.4,72c0.9,0.3,1.8,0.5,2.7,0.6c0.9,0,1.9-0.2,2.7-0.6l173.4-72c3-1.2,4.9-4.1,5-7.4v-200C461.1,129,461.1,128.3,461,127.7z
			 M280.2,68.3l65.8,26.3l-149.6,63.3l-68.4-28.5L280.2,68.3z M271.9,389.8l-157.1-65.4v-28.2H148c4.4,0,8-3.6,8-8s-3.6-8-8-8h-33.2
			v-27.4h76c4.4,0,8-3.6,8-8s-3.6-8-8-8h-76v-27.3h16c4.4,0,8-3.6,8-8s-3.6-8-8-8h-16v-52.2l61.1,25.3l96,40L271.9,389.8
			L271.9,389.8z M280.2,193.1L217,166.6l149.8-63.5l65.5,26.4l-95.4,40L280.2,193.1z M288.2,389.8V206.6l45-18.7l112-46.7l0.4,183.1
			L288.2,389.8z"/>
	</g>
</g>
</svg>
