<svg width="64" height="64" viewBox="0 0 64 64" fill="none" xmlns="http://www.w3.org/2000/svg">
<g clip-path="url(#clip0)">
<path d="M63.9962 38.706C63.9951 38.6914 63.9935 38.6763 63.9919 38.6618C63.9897 38.6472 63.9871 38.6295 63.9844 38.6133C63.9811 38.5966 63.9784 38.5826 63.9752 38.5675C63.9714 38.5524 63.9677 38.5368 63.9633 38.5217C63.959 38.5066 63.9547 38.4915 63.9499 38.4764C63.9445 38.4613 63.9391 38.4468 63.9337 38.4323C63.9278 38.4177 63.9219 38.4032 63.9154 38.3891C63.9089 38.3746 63.9019 38.3606 63.8949 38.346C63.8885 38.332 63.8809 38.3186 63.8728 38.3051C63.8647 38.2911 63.8572 38.2782 63.8486 38.2652C63.84 38.2523 63.8308 38.2377 63.8211 38.2237C63.8114 38.2103 63.8033 38.1995 63.7942 38.1882C63.7834 38.1742 63.7726 38.1602 63.7613 38.1478C63.7559 38.1418 63.7511 38.1354 63.7457 38.1289L56.6399 30.3869C55.9336 29.6191 54.9389 29.1821 53.8958 29.181H42.4102V19.1717C42.408 17.1162 40.742 15.4502 38.686 15.4475H26.5521C25.3323 8.595 19.0622 3.82228 12.1327 4.471C5.20264 5.11972 -0.0722393 10.9733 0.000499067 17.933C0.0737762 24.8927 5.47096 30.6342 12.4129 31.1369V51.1361C12.415 53.1922 14.081 54.8582 16.1371 54.8603H18.7018C19.1722 57.6476 21.5865 59.6885 24.4131 59.6885C27.2397 59.6885 29.6535 57.6476 30.1244 54.8603H46.2885C46.7588 57.6476 49.1732 59.6885 51.9998 59.6885C54.8263 59.6885 57.2402 57.6476 57.7111 54.8603H60.2758C62.3319 54.8582 63.9978 53.1922 64 51.1361V38.7825C64 38.7744 63.9989 38.7663 63.9989 38.7588C63.9984 38.741 63.9973 38.7237 63.9962 38.706ZM53.8958 31.1126C54.398 31.1132 54.877 31.3238 55.217 31.6935L60.8378 37.8175H42.4096V31.1126H53.8958ZM1.92995 17.7924C1.92995 11.4695 7.05558 6.34388 13.3784 6.34388C19.7013 6.34388 24.8269 11.4695 24.8269 17.7924C24.8269 24.1152 19.7013 29.2408 13.3784 29.2408C7.05827 29.2338 1.93695 24.1125 1.92995 17.7924ZM14.344 51.1361V31.1369C21.3365 30.6229 26.7493 24.8038 26.758 17.7924C26.758 17.6544 26.7553 17.5165 26.751 17.3786H38.686C39.6758 17.3796 40.478 18.1819 40.4791 19.1717V52.9293H30.1244C29.6535 50.142 27.2397 48.1016 24.4131 48.1016C21.5865 48.1016 19.1722 50.142 18.7018 52.9293H16.1371C15.1473 52.9282 14.345 52.1259 14.344 51.1361ZM24.4131 57.7569C22.28 57.7569 20.551 56.0279 20.551 53.8948C20.551 51.7622 22.28 50.0327 24.4131 50.0327C26.5462 50.0327 28.2752 51.7622 28.2752 53.8948C28.2731 56.0268 26.5451 57.7548 24.4131 57.7569ZM51.9998 57.7569C49.8667 57.7569 48.1376 56.0279 48.1376 53.8948C48.1376 51.7622 49.8667 50.0327 51.9998 50.0327C54.1329 50.0327 55.8619 51.7622 55.8619 53.8948C55.8598 56.0268 54.1318 57.7548 51.9998 57.7569ZM62.0689 51.1361C62.0678 52.1259 61.2656 52.9282 60.2758 52.9293H57.7111C57.2402 50.142 54.8263 48.1016 51.9998 48.1016C49.1732 48.1016 46.7588 50.142 46.2885 52.9293H42.4102V39.748H62.0689V51.1361Z" fill="#E4E4E4"/>
<path d="M18.719 14.5698C18.3823 14.156 17.7745 14.0935 17.3607 14.4302L11.6683 19.0623L9.52115 16.5482C9.17254 16.1506 8.56962 16.107 8.16768 16.4502C7.76573 16.7934 7.71454 17.3958 8.05237 17.802L10.811 21.0327C11.1516 21.4314 11.748 21.4853 12.1548 21.1545L18.5795 15.927C18.9922 15.5902 19.0547 14.983 18.719 14.5698Z" fill="#E4E4E4"/>
</g>
<defs>
<clipPath id="clip0">
<rect width="64" height="64" fill="white"/>
</clipPath>
</defs>
</svg>
