<svg width="18" height="18" viewBox="0 0 18 18" fill="none" xmlns="http://www.w3.org/2000/svg">
<path d="M9.0239 14.25C9.31947 14.2505 9.61224 14.1926 9.88536 14.0796C10.1585 13.9666 10.4066 13.8007 10.6154 13.5915L13.5546 10.65L12.4941 9.5925L9.7694 12.318L9.7499 0H8.2499L8.2694 12.306L5.5544 9.591L4.4939 10.65L7.43315 13.5892C7.64171 13.7987 7.88961 13.9649 8.1626 14.0783C8.43559 14.1917 8.72829 14.2501 9.0239 14.25Z" fill="black"/>
<path d="M16.5 12V15.75C16.5 15.9489 16.421 16.1397 16.2803 16.2803C16.1397 16.421 15.9489 16.5 15.75 16.5H2.25C2.05109 16.5 1.86032 16.421 1.71967 16.2803C1.57902 16.1397 1.5 15.9489 1.5 15.75V12H0V15.75C0 16.3467 0.237053 16.919 0.65901 17.341C1.08097 17.7629 1.65326 18 2.25 18H15.75C16.3467 18 16.919 17.7629 17.341 17.341C17.7629 16.919 18 16.3467 18 15.75V12H16.5Z" fill="black"/>
</svg>
