<svg xmlns="http://www.w3.org/2000/svg" width="55" height="55" viewBox="0 0 55 55"><defs><clipPath id="b028a"><path fill="#fff" d="M27.5 1C42.135 1 54 12.863 54 27.499s-11.865 26.5-26.5 26.5C12.864 54 1 42.135 1 27.5S12.864.999 27.5.999z"/></clipPath></defs><g><g><path fill="#fff" d="M27.5 1C42.135 1 54 12.863 54 27.499s-11.865 26.5-26.5 26.5C12.864 54 1 42.135 1 27.5S12.864.999 27.5.999z"/><path fill="none" stroke="#848484" stroke-linecap="round" stroke-linejoin="round" stroke-miterlimit="20" stroke-width="2" d="M27.5 1C42.135 1 54 12.863 54 27.499s-11.865 26.5-26.5 26.5C12.864 54 1 42.135 1 27.5S12.864.999 27.5.999z" clip-path="url(&quot;#b028a&quot;)"/></g><g><path fill="#848484" d="M27.719 26.825l-.126 5.978h-.523l-.126-5.978v-7.6h.775zm.036 10.218h-.847V35.28h.847z"/></g></g></svg>