<svg height="511pt" viewBox="-1 1 511 511.999" width="511pt" xmlns="http://www.w3.org/2000/svg"><path d="m224.066406 237.960938-.179687 11.382812c-.152344 9.871094 14.777343 10.128906 14.929687.234375l.179688-11.382813c.152344-9.851562-14.777344-10.15625-14.929688-.234374zm0 0"/><path d="m222.238281 354.855469-.175781 11.382812c-.15625 9.867188 14.773438 10.125 14.929688.234375l.175781-11.386718c.15625-9.898438-14.773438-10.078126-14.929688-.230469zm0 0"/><path d="m268.414062 272.960938c4.867188 0 6.386719-3.9375 13.371094-10.027344 7.082032-6.867188-3.292968-17.605469-10.390625-10.722656l-8.175781 7.921874c-4.832031 4.6875-1.453125 12.828126 5.195312 12.828126zm0 0"/><path d="m183.296875 337.597656-4.023437 3.902344c-7.085938 6.863281 3.292968 17.605469 10.390624 10.722656l4.023438-3.902344c7.085938-6.867187-3.292969-17.601562-10.390625-10.722656zm0 0"/><path d="m191.246094 250.957031c-6.871094-7.085937-17.605469 3.296875-10.722656 10.394531l3.898437 4.023438c6.785156 6.996094 17.683594-3.210938 10.722656-10.394531zm0 0"/><path d="m261.886719 345.296875 7.925781 8.175781c6.871094 7.085938 17.601562-3.296875 10.722656-10.390625l-7.925781-8.175781c-6.871094-7.082031-17.601563 3.292969-10.722656 10.390625zm0 0"/><path d="m294.667969 310.683594c9.789062 0 9.925781-14.777344.113281-14.929688-15.296875-.238281-10.566406-.179687-11.5-.179687-9.789062 0-9.929688 14.777343-.117188 14.929687 15.300782.238282 10.570313.179688 11.503907.179688zm0 0"/><path d="m30.679688 191.703125c-34.539063 5.1875-40.992188 52.078125-9.757813 66.691406l111.378906 52.109375c6.4375 22.402344 34.226563 30.738282 51.875 15.097656l51.5625-4.359374c21.804688-1.84375 22.265625-33.726563.566407-36.242188l-50.707032-5.886719c-5.738281-5.738281-13.644531-9.3125-22.371094-9.371093l-56.078124-37.691407 74.078124-28.4375c27.390626-10.511719 37.195313-44.113281 20.179688-67.671875v-36.230468h13.664062c10.636719 0 19.292969-8.65625 19.292969-19.296876v-17.472656h133.511719c9.867188 0 9.882812-14.929687 0-14.929687h-326.738281c-14.066407 0-25.511719-11.445313-25.511719-25.515625 0-4.171875 3.390625-7.5625 7.5625-7.5625h464.308594c15.152344 0 6.816406 33.078125-17.949219 33.078125h-71.808594c-9.871093 0-9.886719 14.929687 0 14.929687h71.808594c22.300781 0 40.445313-18.144531 40.445313-40.445312 0-12.402344-10.089844-22.496094-22.496094-22.496094h-464.308594c-12.40625 0-22.496094 10.09375-22.496094 22.496094 0 22.300781 18.144532 40.445312 40.445313 40.445312h51.019531v17.472656c0 10.640626 8.65625 19.292969 19.296875 19.292969h13.660156v34.546875zm-14.226563 40.710937c-5.488281-18.039062 14.789063-33.394531 30.683594-22.710937 17.261719 11.605469 75.515625 50.761719 97.738281 65.699219-6.277344 4.34375-10.929688 10.878906-12.847656 18.488281-103.53125-50.832031-110.980469-46.378906-115.574219-61.476563zm129.71875 71.703126c-1.5-10.4375 6.726563-19.441407 16.839844-19.441407 9.382812 0 17.015625 7.632813 17.015625 17.015625 0 20.742188-30.453125 23.460938-33.855469 2.425782zm88.414063-4.285157c3.910156.453125 3.820312 6.199219-.105469 6.53125l-40.5625 3.429688c1.273437-4.855469 1.359375-9.898438.371093-14.636719zm-41.738282-127.003906c-3.078125 7.84375-9.105468 13.828125-16.972656 16.84375l-83.871094 32.199219c-38.894531-26.089844-36.773437-24.839844-39.167968-26.167969 59.214843-36.023437 89.996093-54.753906 97.011718-59.023437 24.355469-14.808594 53.242188 10.035156 43 36.148437zm-85.757812-92.414063v-17.472656h112.339844v17.472656c0 2.40625-1.957032 4.363282-4.363282 4.363282h-103.613281c-2.40625 0-4.363281-1.957032-4.363281-4.363282zm32.957031 19.292969h46.425781v23.105469c-24.355468-13.210938-46.085937 2.230469-46.425781 2.355469zm0 0"/><path d="m461.257812 399.707031v-44.738281c0-78.644531-100.230468-112.09375-147.660156-49.6875-5.972656 7.859375 5.90625 16.90625 11.886719 9.035156 38.808594-51.066406 120.84375-23.703125 120.84375 40.652344v44.246094h-134.515625c.519531-41.445313-1.296875-47.609375 2.066406-60.851563 2.429688-9.5625-12.039062-13.253906-14.472656-3.671875-4.050781 15.957032-1.941406 24.785156-2.523438 64.523438h-239.992187c-31.09375 0-56.390625 25.296875-56.390625 56.394531 0 31.09375 25.296875 56.390625 56.390625 56.390625h396.902344c31.09375 0 56.390625-25.296875 56.390625-56.390625 0-28.566406-21.34375-52.238281-48.925782-55.902344zm-7.464843 97.359375h-396.902344c-22.859375 0-41.457031-18.597656-41.457031-41.457031s18.597656-41.460937 41.457031-41.460937h396.902344c22.863281 0 41.460937 18.601562 41.460937 41.460937s-18.601562 41.457031-41.460937 41.457031zm0 0"/><path d="m453.792969 427.125h-396.902344c-15.703125 0-28.480469 12.777344-28.480469 28.480469 0 15.707031 12.777344 28.484375 28.480469 28.484375h396.90625c15.703125-.003906 28.476563-12.777344 28.476563-28.484375 0-15.699219-12.773438-28.476563-28.480469-28.480469zm-285.421875 28.484375c0-7.472656 6.078125-13.550781 13.550781-13.550781 7.46875 0 13.546875 6.078125 13.546875 13.550781s-6.078125 13.546875-13.546875 13.546875c-7.472656 0-13.550781-6.074219-13.550781-13.546875zm-11.496094 13.546875h-74.9375c4.535156-8.347656 4.625-18.582031 0-27.097656h74.9375c-4.535156 8.351562-4.628906 18.582031 0 27.097656zm50.09375-27.097656h96.746094c-4.535156 8.351562-4.625 18.582031 0 27.097656h-96.746094c4.535156-8.347656 4.625-18.582031 0-27.097656zm108.246094 13.550781c0-7.472656 6.078125-13.550781 13.546875-13.550781 7.472656 0 13.550781 6.078125 13.550781 13.550781s-6.078125 13.546875-13.550781 13.546875c-7.46875 0-13.546875-6.074219-13.546875-13.546875zm38.59375-13.550781h74.9375c-4.542969 8.367187-4.617188 18.597656 0 27.097656h-74.9375c4.535156-8.347656 4.628906-18.582031 0-27.097656zm-310.46875 13.550781c0-7.472656 6.078125-13.550781 13.550781-13.550781s13.550781 6.078125 13.550781 13.550781-6.078125 13.546875-13.550781 13.546875-13.550781-6.078125-13.550781-13.546875zm410.453125 13.546875c-7.472657 0-13.550781-6.078125-13.550781-13.546875s6.078124-13.550781 13.550781-13.550781c7.472656 0 13.550781 6.078125 13.550781 13.550781 0 7.46875-6.082031 13.546875-13.550781 13.546875zm0 0"/></svg>