<svg width="77" height="77" viewBox="0 0 77 77" fill="none" xmlns="http://www.w3.org/2000/svg">
<path d="M38.388 34.2891L36.9689 17.3342C36.9501 17.1087 36.8472 16.8985 36.6806 16.7453C36.5141 16.5921 36.296 16.507 36.0697 16.507H29.2476C29.0228 16.5069 28.806 16.5907 28.6398 16.742C28.4735 16.8933 28.3697 17.1012 28.3487 17.325L26 42.1094C24.2663 42.2572 22.6511 43.0498 21.4733 44.3306C20.2955 45.6114 19.6408 47.2873 19.6385 49.0273V52.77H8.50269C8.26337 52.77 8.03385 52.865 7.86463 53.0343C7.69541 53.2035 7.60034 53.433 7.60034 53.6723V73.2402C7.60034 73.4796 7.69541 73.7091 7.86463 73.8783C8.03385 74.0475 8.26337 74.1426 8.50269 74.1426H68.4974C68.7367 74.1426 68.9662 74.0475 69.1355 73.8783C69.3047 73.7091 69.3998 73.4796 69.3998 73.2402V53.6728C69.3998 53.4334 69.3047 53.2039 69.1355 53.0347C68.9662 52.8655 68.7367 52.7704 68.4974 52.7704H60.7579V35.1914C60.7579 34.9521 60.6628 34.7226 60.4936 34.5534C60.3244 34.3841 60.0948 34.2891 59.8555 34.2891H57.8553L56.4311 9.21684C57.1087 8.90335 57.6824 8.40266 58.0848 7.77381C58.4872 7.14496 58.7013 6.41417 58.702 5.66762V4.06055C58.702 3.82123 58.607 3.59172 58.4377 3.42249C58.2685 3.25327 58.039 3.1582 57.7997 3.1582H46.0737C45.8344 3.1582 45.6049 3.25327 45.4357 3.42249C45.2664 3.59172 45.1714 3.82123 45.1714 4.06055V5.66822C45.172 6.41478 45.3862 7.14558 45.7886 7.77444C46.1909 8.40329 46.7647 8.90398 47.4423 9.21744L46.0118 34.2891H38.388ZM30.0684 18.3119H35.2397L36.577 34.2891H32.0333C31.7939 34.2891 31.5644 34.3841 31.3952 34.5534C31.226 34.7226 31.1309 34.9521 31.1309 35.1914V42.0835H27.8152L30.0684 18.3119ZM21.4432 49.0273C21.4447 47.6647 21.9867 46.3584 22.9502 45.3948C23.9137 44.4313 25.22 43.8893 26.5826 43.8877H45.0296C46.3922 43.8893 47.6986 44.4312 48.6621 45.3948C49.6257 46.3583 50.1677 47.6647 50.1692 49.0273V52.77H21.4432V49.0273ZM67.5951 72.3379H9.40503V54.5751H67.5951V72.3379ZM58.9532 52.7704H51.9739V49.0273C51.9718 47.1862 51.2395 45.4211 49.9376 44.1193C48.6358 42.8174 46.8707 42.0851 45.0296 42.0831H32.9356V36.0938H58.9532V52.7704ZM46.9761 4.96289H56.8973V5.66822C56.8967 6.22643 56.6747 6.7616 56.28 7.15631C55.8852 7.55102 55.3501 7.77305 54.7919 7.77369H49.0815C48.5233 7.77309 47.9881 7.55108 47.5934 7.15635C47.1987 6.76163 46.9767 6.22644 46.9761 5.66822V4.96289ZM49.2291 9.57838H54.644L56.0481 34.2891H47.8195L49.2291 9.57838Z" fill="#BC1818"/>
<path d="M29.0752 66.5583H35.1442C35.3835 66.5583 35.613 66.4632 35.7823 66.294C35.9515 66.1248 36.0466 65.8953 36.0466 65.656V58.3733C36.0466 58.134 35.9515 57.9045 35.7823 57.7352C35.613 57.566 35.3835 57.4709 35.1442 57.4709H29.0752C28.8359 57.4709 28.6064 57.566 28.4371 57.7352C28.2679 57.9045 28.1729 58.134 28.1729 58.3733V65.656C28.1729 65.8953 28.2679 66.1248 28.4371 66.294C28.6064 66.4632 28.8359 66.5583 29.0752 66.5583ZM29.9775 59.2756H34.2419V64.7536H29.9775V59.2756Z" fill="#BC1818"/>
<path d="M16.2949 66.5583H22.3639C22.6033 66.5583 22.8328 66.4632 23.002 66.294C23.1712 66.1248 23.2663 65.8953 23.2663 65.656V58.3733C23.2663 58.134 23.1712 57.9045 23.002 57.7352C22.8328 57.566 22.6033 57.4709 22.3639 57.4709H16.2949C16.0556 57.4709 15.8261 57.566 15.6569 57.7352C15.4876 57.9045 15.3926 58.134 15.3926 58.3733V65.656C15.3926 65.8953 15.4876 66.1248 15.6569 66.294C15.8261 66.4632 16.0556 66.5583 16.2949 66.5583ZM17.1973 59.2756H21.4616V64.7536H17.1973V59.2756Z" fill="#BC1818"/>
<path d="M41.8557 66.5583H47.9247C48.164 66.5583 48.3936 66.4632 48.5628 66.294C48.732 66.1248 48.8271 65.8953 48.8271 65.656V58.3733C48.8271 58.134 48.732 57.9045 48.5628 57.7352C48.3936 57.566 48.164 57.4709 47.9247 57.4709H41.8557C41.6164 57.4709 41.3869 57.566 41.2177 57.7352C41.0484 57.9045 40.9534 58.134 40.9534 58.3733V65.656C40.9534 65.8953 41.0484 66.1248 41.2177 66.294C41.3869 66.4632 41.6164 66.5583 41.8557 66.5583ZM42.7581 59.2756H47.0224V64.7536H42.7581V59.2756Z" fill="#BC1818"/>
<path d="M54.636 66.5583H60.705C60.9443 66.5583 61.1738 66.4632 61.3431 66.294C61.5123 66.1248 61.6073 65.8953 61.6073 65.656V58.3733C61.6073 58.134 61.5123 57.9045 61.3431 57.7352C61.1738 57.566 60.9443 57.4709 60.705 57.4709H54.636C54.3967 57.4709 54.1672 57.566 53.9979 57.7352C53.8287 57.9045 53.7336 58.134 53.7336 58.3733V65.656C53.7336 65.8953 53.8287 66.1248 53.9979 66.294C54.1672 66.4632 54.3967 66.5583 54.636 66.5583ZM55.5383 59.2756H59.8027V64.7536H55.5383V59.2756Z" fill="#BC1818"/>
</svg>
