<?xml version="1.0" encoding="utf-8"?>
<!-- Generator: Adobe Illustrator 24.3.0, SVG Export Plug-In . SVG Version: 6.00 Build 0)  -->
<svg version="1.1" id="Capa_1" xmlns="http://www.w3.org/2000/svg" xmlns:xlink="http://www.w3.org/1999/xlink" x="0px" y="0px"
	 viewBox="0 0 512 512" style="enable-background:new 0 0 512 512;" xml:space="preserve">
<style type="text/css">
	.st0{fill:#BE1A1D;}
</style>
<g>
	<g>
		<path class="st0" d="M512,174.4c0-7.8-2.3-15.7-7.4-22.2l-40.6-51.9c-6.8-8.6-17.1-13-27.5-13c-6.1,0-12.4,1.6-17.9,5l-39.6,24.6
			c-4.2,2.7-11.3,4.5-18.2,4.4c-5.4,0-10.5-1-13.9-2.7l-38.7-18.8c-6.2-3-13.2-4.2-20.2-4.3c-10.1,0-20.2,2.5-28.4,8.2l-4.5,3.2
			c-3.6-1.8-9.1-4.6-15.4-7.7c-7.5-3.7-16.3-5.2-25.2-5.2c-8,0-16.1,1.3-23.2,4.2l-26.4,11.3c-4.3,1.9-11.1,3.1-17.9,3
			c-6.8,0-13.6-1.2-17.9-3l-26.4-11.3c-4.8-2.1-10-2.9-15.1-2.9c-5.9,0-11.7,1.2-17.1,3.4c-5.4,2.2-10.5,5.5-14.5,10L8,162.6
			c-5.3,6-8,13.4-8,20.8c0,8.8,3.8,17.6,11,23.8l44.8,38.3l-21.3,22.2c-5.9,6.1-8.8,14.1-8.8,21.9c0,8.3,3.3,16.8,9.9,23l4.3,4.1
			c4.1,3.9,9,6.3,14.1,7.6c-2.6,4.7-4,9.9-4,15.1c0,8.4,3.3,16.8,9.9,23l0,0l4.3,4.1c6.2,5.8,14.2,8.8,22,8.7
			c4.2,0,8.5-0.8,12.4-2.5c1.4,5.7,4.3,11.1,8.8,15.4l4.3,4.1c6.2,5.8,14.1,8.8,22,8.7c6.2,0,12.4-1.8,17.7-5.3
			c1.6,5,4.2,9.8,8.3,13.6l4.3,4.1c6.1,5.8,14.1,8.8,22,8.7c8.4,0,16.8-3.3,23.1-9.8l18.8-19.6l25.5,23.6c6.1,5.7,14,8.5,21.7,8.5
			c8.5,0,17.1-3.4,23.4-10.1l4.1-4.4c3.5-3.8,5.8-8.3,7.2-12.9l9.9,9.1c6.1,5.6,14,8.5,21.7,8.5c8.5,0,17.1-3.4,23.4-10.1l4.1-4.4
			c4.7-5,7.3-11.2,8.1-17.5c2.6,0.7,5.3,1.1,7.9,1.1c8.5,0,17.1-3.4,23.4-10.1l4.1-4.4c5.7-6.1,8.5-13.9,8.5-21.6
			c0-2.4-0.3-4.8-0.9-7.1c7.1-0.9,13.9-4.1,19.1-9.7l4.1-4.4c5.7-6.1,8.5-13.9,8.5-21.6c0-8.5-3.4-17-10.2-23.3l-7.6-7l68.8-76.1
			C509.1,191.9,512,183.1,512,174.4z M62,308.1c-3.6,0-7.2-1.3-10-4l-4.3-4.1c-3-2.8-4.5-6.6-4.5-10.5c0-3.6,1.3-7.2,4-9.9
			l43.6-45.5c2.8-3,6.6-4.4,10.5-4.4c3.6,0,7.2,1.3,10,4l4.3,4.1c0,0,4.5,6.6,4.5,10.5c0,2.9-0.9,5.7-2.6,8.2c-0.1,0.1-47,49-47,49
			C68,307.1,65,308.1,62,308.1z M96.8,353.4c-2.8,3-6.6,4.4-10.5,4.4c-3.6,0-7.2-1.3-10-4l-4.3-4.1l0,0c-3-2.8-4.5-6.6-4.5-10.5
			c0-3.6,1.3-7.2,4-9.9c0,0,58.1-60.5,58.6-61c2.8-2.7,6.4-4,10-4.1c3.6,0,7.2,1.3,10,4l4.3,4.1c3,2.8,4.5,6.6,4.5,10.5
			c0,3.6-1.3,7.2-4,10L96.8,353.4z M144.4,379.1c-2.8,3-6.6,4.4-10.5,4.4c-3.6,0-7.2-1.3-10-4l-4.3-4.1c-3-2.8-4.5-6.6-4.5-10.5
			c0-3.2,1.1-6.4,3.2-9l40.5-42.2c2.7-2.5,6.1-3.8,9.7-3.8c3.6,0,7.2,1.3,10,4l4.3,4.1c3,2.8,4.5,6.6,4.5,10.4c0,3.6-1.3,7.2-4,10
			L144.4,379.1z M221.3,374.7l-24.5,25.6c-2.8,3-6.6,4.4-10.5,4.4c-3.6,0-7.2-1.3-10-4l-4.3-4.1c-3-2.8-4.5-6.6-4.5-10.5
			c0-3.6,1.3-7.2,4-9.9l24.5-25.6c2.8-3,6.6-4.4,10.5-4.4c3.6,0,7.2,1.3,10,4l4.3,4.1c3,2.8,4.4,6.6,4.5,10.4
			C225.3,368.4,223.9,371.9,221.3,374.7z M434.5,305.2c0,3.6-1.3,7-3.9,9.8l-4.1,4.4c-2.8,3-6.7,4.6-10.6,4.6
			c-3.6,0-7.1-1.3-9.9-3.8l-68.5-63.4l-11.9,12.7l73.4,68c3.1,2.8,4.6,6.7,4.6,10.6c0,3.6-1.3,7.1-3.9,9.8l-4.1,4.4
			c-2.8,3-6.7,4.6-10.6,4.6c-3.6,0-7.1-1.3-9.9-3.8l-68.6-63.4l-11.8,12.7l60.8,56.3c2.9,2.8,4.4,6.6,4.4,10.4c0,3.6-1.3,7-3.8,9.8
			l-4.1,4.4c-2.8,3-6.7,4.6-10.6,4.6c-3.6,0-7.1-1.3-9.9-3.8L271,337.7h0l0,0l-11.8,12.7l0,0l0.2,0.2l30.4,28.1
			c2.7,2.8,4.1,6.3,4.1,10c0,3.5-1.3,7-3.8,9.8l-4.1,4.4c-2.8,3-6.7,4.6-10.6,4.6c-3.6,0-7.1-1.3-9.9-3.8l-26.5-24.5
			c2.3-4.5,3.6-9.4,3.6-14.3c0-8.3-3.3-16.8-9.9-23l-4.3-4.1c-6.1-5.8-14.1-8.8-22-8.7c-0.6,0-1.2,0.1-1.8,0.2c0-0.1,0-0.3,0-0.4
			c0-8.3-9.9-23-9.9-23l-4.3-4.1c-4.6-4.4-10.2-7.1-16.1-8.2c1.2-3.4,1.9-7,1.9-10.5c0-8.3-3.3-16.8-9.9-23l-4.3-4.1
			c-6.2-5.8-14.1-8.8-22-8.8c-0.9,0-1.8,0.2-2.7,0.3c-0.2-8-3.5-16-9.8-22v0l-4.3-4.1c-6.2-5.8-14.1-8.8-22-8.8
			c-8.4,0-16.8,3.3-23.1,9.8l-10.3,10.7l-45.6-38.9c-3.3-2.8-4.9-6.7-4.9-10.7c0-3.3,1.1-6.6,3.6-9.3l48.1-53.8
			c1.9-2.1,4.7-4.1,8-5.4c3.3-1.3,7.1-2.1,10.6-2.1c3.1,0,5.9,0.6,8.2,1.5l26.4,11.3c7.4,3.1,16.1,4.4,24.8,4.5
			c8.7,0,17.3-1.3,24.8-4.4l26.4-11.3c4.1-1.8,10.2-2.9,16.3-2.9c6.7,0,13.5,1.4,17.4,3.4c2.5,1.2,4.9,2.4,7,3.5l-26.9,18.9
			c-8.6,6.1-13.3,15.7-13.3,25.5c0,6.5,2,13,6.2,18.6l0,0l3.6,4.8c6.7,9,17.3,13.6,27.8,13.6c5.9,0,12-1.5,17.4-4.7l16.1-9.7
			c3.3-2,8.2-3.3,13.4-3.3c6,0,12.1,1.7,15.7,4.4l44.5,31.9c9.9,7.1,26,20.3,35,28.5l51.5,47.6C433,297.4,434.5,301.3,434.5,305.2z
			 M490,187.1l-68.6,75.9l-31.2-28.8c-9.8-9-25.9-22.2-36.7-29.9l-44.5-31.9c-7.5-5.3-16.8-7.7-25.9-7.7c-7.8,0-15.6,1.7-22.4,5.7
			l-16.1,9.7c-2.5,1.5-5.4,2.2-8.4,2.2c-5.4,0-10.8-2.5-13.8-6.6l-3.5-4.8l0,0c-1.9-2.5-2.8-5.4-2.8-8.3c0-4.4,2-8.6,5.9-11.4
			l47.6-33.4c4.1-3,11.4-5.1,18.4-5c4.8,0,9.4,0.9,12.6,2.5l38.7,18.8c6.6,3.2,14.1,4.5,21.6,4.5c9.6,0,19.4-2.1,27.4-7.1l39.6-24.6
			c2.5-1.6,5.6-2.4,8.7-2.4c5.3,0,10.7,2.4,13.7,6.4l40.6,51.9c2.3,3,3.7,7.2,3.7,11.5C494.6,179.2,492.9,184,490,187.1z"/>
	</g>
</g>
</svg>
