<svg height="512" viewBox="0 0 512 512" width="512" xmlns="http://www.w3.org/2000/svg"><g id="_OUTLINE" data-name="/ OUTLINE"><path d="m32 468a12.01375 12.01375 0 0 1 12-12h20v-16h-20a28 28 0 0 0 0 56h148v-16h-148a12.01375 12.01375 0 0 1 -12-12z"/><path d="m313.373 24h45.255v16h-45.255z" transform="matrix(.707 -.707 .707 .707 75.785 246.96)"/><path d="m326.059 56h67.882v16h-67.882z" transform="matrix(.707 -.707 .707 .707 60.187 273.304)"/><path d="m334.059 104h67.882v16h-67.882z" transform="matrix(.707 -.707 .707 .707 28.589 293.019)"/><path d="m385.65674 337.65674a24.96535 24.96535 0 0 0 -16.70911-42.60437 24.95248 24.95248 0 0 0 -24-24 24.95248 24.95248 0 0 0 -24-24 24.74811 24.74811 0 0 0 -4.49011-13.36884 37.093 37.093 0 0 0 13.97217-8.79974l3.98193-3.98193 18.72852 31.21435 13.71972-8.23242-24-40a8 8 0 0 0 -12.5166-1.54053l-11.227 11.22705a21.33284 21.33284 0 0 1 -27.12207 2.519l32.73633-33.24366a15.88706 15.88706 0 0 1 11.33935-4.77343 15.71124 15.71124 0 0 1 11.375 4.686l58.21192 58.21191a7.94834 7.94834 0 0 1 2.34321 5.65731v48.96729a23.843 23.843 0 0 0 7.02979 16.9707l75.31347 75.31348 11.31348-11.31348-75.31348-75.31343a7.9483 7.9483 0 0 1 -2.34326-5.65727v-48.96729a23.843 23.843 0 0 0 -7.02979-16.9707l-58.21191-58.21192a31.77524 31.77524 0 0 0 -22.624-9.373c-.04151 0-.084.00049-.126.00049a31.77869 31.77869 0 0 0 -22.67822 9.54687l-1.18946 1.208-36.82714-36.82718 31.02978-31.02979a23.99948 23.99948 0 0 0 0-33.94042l-49.373-49.37305a23.99948 23.99948 0 0 0 -33.94042 0l-97.373 97.37305a23.99948 23.99948 0 0 0 0 33.94042l49.373 49.373a23.82151 23.82151 0 0 0 12.67236 6.64112l-11.7022 11.70219-26.34326-26.34326a8 8 0 0 0 -11.31348 0l-7.0293 7.0293a32.01092 32.01092 0 0 0 -8.27105 30.89227 23.821 23.821 0 0 0 -13.38617 6.765l-36.28418 36.28417a31.78981 31.78981 0 0 0 -9.37256 22.62692v12.11816a31.78981 31.78981 0 0 0 9.37256 22.627l3.314 3.314-8 8h-20.68656a7.99956 7.99956 0 0 0 -7.353 4.84863l-24 56a8 8 0 0 0 1.69629 8.80811l16 16a7.99916 7.99916 0 0 0 8.80811 1.69629l56-24a7.99956 7.99956 0 0 0 4.8486-7.35311v-20.68652l8-8 .9707.9707a39.73644 39.73644 0 0 0 28.28418 11.71582h15.43164l117.65674 117.65674 11.31348-11.31348-120-120a7.99877 7.99877 0 0 0 -5.65674-2.34326h-18.74512a23.84457 23.84457 0 0 1 -16.9707-7.0293l-39.59818-39.59814a15.89507 15.89507 0 0 1 -4.686-11.31348v-12.11816a15.89507 15.89507 0 0 1 4.686-11.31348l36.28417-36.28418a7.94834 7.94834 0 0 1 5.65727-2.34326h6.05908l37.65674 37.65674 11.31348-11.31348-39.0293-39.0293a16.00124 16.00124 0 0 1 0-22.62792l1.37256-1.37256 69.65674 69.65673a7.94834 7.94834 0 0 1 2.34326 5.65723v49.37256a7.99877 7.99877 0 0 0 2.34326 5.65674l160 160 11.31348-11.31348-157.65674-157.65674v-46.05908a23.816 23.816 0 0 0 -4.8493-14.4646l19.19256-19.19263a24.02666 24.02666 0 0 0 0-33.94042l-17.373-17.373a23.84907 23.84907 0 0 0 -12.68994-6.62354l15.71968-15.71977 45.65625 45.57031a37.46485 37.46485 0 0 0 3.4707 3.053 25.32285 25.32285 0 0 0 -2.78369 2.40643l-32 32a24.96535 24.96535 0 0 0 16.70911 42.60437 24.95248 24.95248 0 0 0 24 24 24.98811 24.98811 0 0 0 33.15271 22.64514 24.99058 24.99058 0 0 0 34.86865 14.79444l135.26953 135.26957 11.31348-11.31348-134.34326-134.34326zm-297.65674 9.65674 12.68652 12.68652-10.34326 10.34326a7.99877 7.99877 0 0 0 -2.34326 5.65674v18.72461l-46.17285 19.78857-8.34033-8.34033 19.78857-46.17285h18.72461a7.99877 7.99877 0 0 0 5.65674-2.34326zm146.34326-314.34327a8.00891 8.00891 0 0 1 11.31348 0l49.373 49.37305a8.00889 8.00889 0 0 1 0 11.31348l-15.02974 15.02978-60.68652-60.68652zm-48 158.05958-49.373-49.373a8.00889 8.00889 0 0 1 0-11.31348l15.02974-15.02983 60.68652 60.68652-15.02978 15.02979a8.00889 8.00889 0 0 1 -11.31348 0zm31.31348 21.94042 17.373 17.373a8.00063 8.00063 0 0 1 0 11.31348l-19.02974 19.02983-28.68652-28.68652 19.02978-19.02979a8.00063 8.00063 0 0 1 11.31348 0zm6.34326-48.28369-60.68652-60.68652 44.68652-44.68652 60.68652 60.68652zm56.38672 40.38666-37.07324-37.07318 20.68652-20.68652 36.91406 36.91412zm-16.38672 83.89752a8.97072 8.97072 0 0 1 -6.34326-15.314l32-32a8.97072 8.97072 0 0 1 12.68652 12.68652l-32 32a8.91226 8.91226 0 0 1 -6.34326 2.62748zm24 24a8.97072 8.97072 0 0 1 -6.34326-15.314l32-32a8.97072 8.97072 0 0 1 12.68652 12.68652l-32 32a8.91226 8.91226 0 0 1 -6.34326 2.62748zm30.34326 21.37256a8.97072 8.97072 0 0 1 -12.68652-12.68652l32-32a8.97072 8.97072 0 0 1 12.68652 12.68652zm32 16a8.97072 8.97072 0 0 1 -12.68652-12.68652l24-24a8.97072 8.97072 0 0 1 12.68652 12.68652z"/><path d="m76 116.676h16v46.648h-16z" transform="matrix(.857 -.515 .515 .857 -60.059 63.169)"/><path d="m36 151.604h16v40.792h-16z" transform="matrix(.196 -.981 .981 .196 -133.289 181.414)"/><path d="m36.676 212h46.648v16h-46.648z" transform="matrix(.857 -.515 .515 .857 -104.639 62.221)"/><path d="m132 399.351h16v25.298h-16z" transform="matrix(.316 -.949 .949 .316 -295.129 414.53)"/><path d="m96 444.686h16v22.627h-16z" transform="matrix(.707 -.707 .707 .707 -291.98 207.098)"/><path d="m136 436.686h16v22.627h-16z" transform="matrix(.707 -.707 .707 .707 -274.607 233.04)"/><path d="m456 240h16a40.04521 40.04521 0 0 0 -40-40v16a24.02687 24.02687 0 0 1 24 24z"/><path d="m480 208h16a32.036 32.036 0 0 0 -32-32v16a16.01833 16.01833 0 0 1 16 16z"/></g></svg>