<svg xmlns="http://www.w3.org/2000/svg" width="47" height="47" viewBox="0 0 47 47"><g><g><path fill="gray" d="M45.043 21.543a1.953 1.953 0 0 0-1.956 1.956c0 10.801-8.787 19.587-19.587 19.587-10.8 0-19.587-8.786-19.587-19.587C3.913 12.7 12.7 3.913 23.5 3.913c5.899 0 11.366 2.6 15.069 7.07h-6.763a1.952 1.952 0 0 0-1.956 1.956c0 1.084.873 1.957 1.956 1.957H42.8a1.953 1.953 0 0 0 1.956-1.957V1.956A1.953 1.953 0 0 0 42.8 0a1.953 1.953 0 0 0-1.957 1.956v5.66A23.428 23.428 0 0 0 23.5 0C10.541 0 0 10.54 0 23.5 0 36.457 10.541 47 23.5 47S47 36.458 47 23.5a1.953 1.953 0 0 0-1.957-1.957z"/></g></g></svg>