<svg xmlns="http://www.w3.org/2000/svg" width="52" height="64" viewBox="0 0 52 64"><g><g><path fill="#c2c2c2" d="M.209 46.621L.015 6.387C-.001 2.927 2.798.108 6.267.092L25.482 0c.027 0 .054 0 .08.003l.29.028a.812.812 0 0 1 .491.228l13.899 13.7c.152.151.238.356.24.57v.23l.105 18.413 10.98 5.836c.263.14.428.414.428.711v7.889a16.862 16.862 0 0 1-10.359 15.544l-1.762.76a.81.81 0 0 1-.642-.001l-1.565-.68a16.935 16.935 0 0 1-9.395-10.482l-21.75.107H6.49a6.252 6.252 0 0 1-4.42-1.814 6.219 6.219 0 0 1-1.861-4.42zm50.172-6.42L39.6 34.472l-10.47 5.725v7.572a15.283 15.283 0 0 0 9.184 13.987l1.242.54L41 61.674l.006-.003a15.256 15.256 0 0 0 9.376-14.063zM26.563 2.74l.031 6.424a4.668 4.668 0 0 0 4.668 4.634h.023l6.464-.03zM1.63 6.379l.194 40.234a4.662 4.662 0 0 0 4.667 4.634h.024l21.345-.106a16.756 16.756 0 0 1-.344-3.373v-8.05c0-.293.16-.564.419-.705l11.038-6.034-.1-17.609-7.58.037h-.03c-3.457-.005-6.262-2.79-6.282-6.236l-.037-7.56-18.668.09A4.643 4.643 0 0 0 2.98 3.08 4.621 4.621 0 0 0 1.63 6.379zm21.43 24.144a.806.806 0 0 1-.808.804h-2.737a.805.805 0 1 1 0-1.61h2.737c.446 0 .807.361.807.806zM8.155 23.696c0-.444.362-.804.807-.804h22.723a.806.806 0 1 1 0 1.61H8.963a.806.806 0 0 1-.807-.806zm0 6.827c0-.445.362-.805.807-.805h7.083a.806.806 0 0 1 0 1.61H8.963a.806.806 0 0 1-.807-.805zm29.895 19.685l6.49-5.266a.808.808 0 0 1 1.126.124.804.804 0 0 1-.108 1.125l-7.1 5.762a.808.808 0 0 1-1.123-.102l-3.049-3.561a.804.804 0 0 1 .463-1.321.81.81 0 0 1 .764.275z"/></g></g></svg>