<?xml version="1.0" encoding="utf-8"?>
<!-- Generator: Adobe Illustrator 24.3.0, SVG Export Plug-In . SVG Version: 6.00 Build 0)  -->
<svg version="1.1" id="Icons" xmlns="http://www.w3.org/2000/svg" xmlns:xlink="http://www.w3.org/1999/xlink" x="0px" y="0px"
	 viewBox="0 0 512 512" style="enable-background:new 0 0 512 512;" xml:space="preserve">
<style type="text/css">
	.st0{fill:#BB1B1E;}
</style>
<path class="st0" d="M433.8,389.6c-3.8,0-6.9-3.1-6.9-6.9c0-1.2,0.3-2.4,0.9-3.4c58-100.6,23.5-229.3-77.2-287.3
	c-8.6-4.9-17.5-9.3-26.7-13c-3.5-1.4-5.3-5.5-3.9-9s5.5-5.3,9-3.9c115,46.2,170.7,176.7,124.6,291.6c-3.9,9.8-8.6,19.3-13.8,28.5
	C438.5,388.3,436.2,389.6,433.8,389.6L433.8,389.6z"/>
<path class="st0" d="M245.7,498.2c-80-0.2-153.9-42.8-194-112c-2.1-3.2-1.1-7.5,2.1-9.6c3.2-2,7.5-1.1,9.6,2.1
	c0.1,0.2,0.2,0.3,0.3,0.5c58.1,100.5,186.6,135,287.2,76.9c14.7-8.5,28.3-18.7,40.6-30.5c2.8-2.7,7.1-2.6,9.8,0.2
	c2.7,2.8,2.6,7.1-0.2,9.8l0,0C359.3,475.8,303.7,498.3,245.7,498.2L245.7,498.2z"/>
<path class="st0" d="M34,329.3c-3.2,0-6-2.2-6.7-5.4C-0.1,203.2,75.6,83.1,196.4,55.7c16.2-3.7,32.7-5.5,49.3-5.5
	c3.8,0,6.9,3.1,6.9,6.9s-3.1,6.9-6.9,6.9C129.6,64.1,35.5,158.4,35.6,274.5c0,15.6,1.8,31.1,5.2,46.3c0.9,3.7-1.5,7.4-5.2,8.3l0,0
	C35.1,329.3,34.6,329.3,34,329.3z"/>
<path class="st0" d="M209.4,100.3c-3.8,0-6.9-3.1-6.9-6.9c0-1.8,0.7-3.6,2-4.9l31.4-31.4l-31.4-31.4c-2.7-2.7-2.7-7.1,0-9.8
	s7.1-2.7,9.8,0l36.3,36.3c2.7,2.7,2.7,7.1,0,9.8l-36.3,36.3C213,99.6,211.3,100.3,209.4,100.3L209.4,100.3z"/>
<path class="st0" d="M44.5,439.2c-0.6,0-1.2-0.1-1.8-0.2c-3.7-1-5.9-4.8-4.9-8.5l0,0l13.3-49.6c1-3.7,4.8-5.9,8.4-4.9l49.6,13.3
	c3.7,0.9,6,4.6,5.2,8.3c-0.9,3.7-4.6,6-8.3,5.2c-0.1,0-0.3-0.1-0.4-0.1l-42.9-11.5l-11.5,42.9C50.3,437.1,47.6,439.2,44.5,439.2
	L44.5,439.2z"/>
<path class="st0" d="M433.7,389.6c-3.1,0-5.9-2.1-6.7-5.1l-13.3-49.6c-0.9-3.7,1.4-7.4,5.2-8.3c3.6-0.8,7.1,1.2,8.2,4.7l11.5,42.9
	l42.9-11.5c3.7-1,7.5,1.2,8.4,4.9c1,3.7-1.2,7.4-4.9,8.4l-49.6,13.3C434.9,389.5,434.3,389.6,433.7,389.6L433.7,389.6z"/>
<path class="st0" d="M249.1,409.4c-75.2,0-136.1-60.9-136.1-136.1s60.9-136.1,136.1-136.1s136.1,60.9,136.1,136.1l0,0
	C385.1,348.4,324.2,409.3,249.1,409.4z M249.1,151.1c-67.5,0-122.2,54.7-122.2,122.2s54.7,122.2,122.2,122.2s122.2-54.7,122.2-122.2
	l0,0C371.2,205.8,316.6,151.1,249.1,151.1z"/>
<path id="XMLID_449_" class="st0" d="M259.4,278.2c18.9,0,34.3-15.4,34.3-34.3s-15.4-34.3-34.3-34.3c-0.1,0-0.1,0-0.2,0h-28l0,0
	c-3.3,0-6,2.7-6,6l0,0V272v18.1h-6c-3.3,0-6,2.7-6,6s2.7,6,6,6h6v34.3c0,3.3,2.7,6,6,6s6-2.7,6-6v-34.3h22.2c3.3,0,6-2.7,6-6
	s-2.7-6-6-6h-22.2V278h22.2V278.2z M259.4,221.7c0.1,0,0.1,0,0.2,0c12.1,0.1,22,10,22,22.2c0,12.2-9.9,22.2-22.2,22.2h-22.2v-44.3
	h22.2V221.7z"/>
</svg>
