<?xml version="1.0" encoding="utf-8"?>
<!-- Generator: Adobe Illustrator 24.3.0, SVG Export Plug-In . SVG Version: 6.00 Build 0)  -->
<svg version="1.1" id="Слой_1" xmlns="http://www.w3.org/2000/svg" xmlns:xlink="http://www.w3.org/1999/xlink" x="0px" y="0px"
	 viewBox="0 0 22 22" style="enable-background:new 0 0 22 22;" xml:space="preserve">
<style type="text/css">
	.st0{fill:#C6C6C6;}
</style>
<path class="st0" d="M19.1,14.9l-2.5-2.5c-0.6-0.6-1.5-0.6-2.1,0l0,0L13,13.8c-0.1,0.1-0.3,0.1-0.4,0c-0.8-0.6-1.5-1.2-2.2-1.9
	c-0.6-0.6-1.2-1.3-1.7-2c-0.1-0.1-0.1-0.3,0-0.4L10.2,8c0.6-0.6,0.6-1.5,0-2.1L7.7,3.4c-0.6-0.6-1.5-0.6-2.1,0L4.8,4.2
	c-1.2,1.2-1.6,3-1.1,4.6c0.4,1.2,0.9,2.3,1.6,3.4c0.6,1,1.3,1.8,2.2,2.6c0.9,0.9,1.8,1.7,2.9,2.4c1.1,0.8,2.4,1.3,3.7,1.7
	c0.3,0.1,0.7,0.1,1,0.1c1.2,0,2.4-0.5,3.2-1.4l0.7-0.7C19.6,16.4,19.6,15.4,19.1,14.9z M18.4,16.3L18.4,16.3L18.4,16.3L17.7,17
	c-0.9,0.9-2.2,1.3-3.4,1s-2.4-0.9-3.5-1.6c-1-0.6-1.9-1.4-2.7-2.2s-1.4-1.6-2-2.5c-0.7-1-1.2-2-1.5-3.1C4.2,7.3,4.5,5.8,5.5,4.9
	l0.8-0.8c0.2-0.2,0.6-0.2,0.8,0l0,0l2.5,2.5c0.2,0.2,0.2,0.6,0,0.8l0,0L8.1,8.9C7.7,9.3,7.7,10,8,10.5c0.5,0.7,1.1,1.4,1.8,2.1
	c0.7,0.7,1.5,1.4,2.3,2c0.5,0.3,1.1,0.3,1.6-0.1l1.4-1.5c0.2-0.2,0.6-0.2,0.8,0l0,0l2.5,2.6C18.6,15.7,18.6,16.1,18.4,16.3z"/>
</svg>
