<?xml version="1.0" encoding="utf-8"?>
<!-- Generator: Adobe Illustrator 24.3.0, SVG Export Plug-In . SVG Version: 6.00 Build 0)  -->
<svg version="1.1" id="Capa_1" xmlns="http://www.w3.org/2000/svg" xmlns:xlink="http://www.w3.org/1999/xlink" x="0px" y="0px"
	 viewBox="0 0 512 512" style="enable-background:new 0 0 512 512;" xml:space="preserve">
<style type="text/css">
	.st0{fill:#BE1A1D;}
</style>
<g id="XMLID_1364_">
	<g id="XMLID_141_">
		<path id="XMLID_162_" class="st0" d="M456.8,449L392,336.8c10.7-9,18.2-21.9,20.2-36.5c1.3-9.9,6.4-18.7,14.4-24.9
			c20.5-15.9,28-43.7,18.1-67.7c-3.8-9.3-3.8-19.5,0-28.7c9.8-24,2.4-51.9-18.1-67.7c-7.9-6.1-13-15-14.4-24.9
			c-3.5-25.7-23.9-46.1-49.6-49.6c-9.9-1.3-18.7-6.4-24.9-14.4C321.9,1.9,294-5.5,270,4.3c-9.3,3.8-19.5,3.8-28.7,0
			c-24-9.8-51.9-2.4-67.7,18.1c-6.1,7.9-15,13-24.9,14.4c-25.7,3.5-46.1,23.9-49.6,49.6c-1.3,9.9-6.4,18.7-14.4,24.9
			c-20.5,15.9-28,43.7-18.1,67.7c3.8,9.3,3.8,19.5,0,28.7c-9.8,24-2.4,51.9,18.1,67.7c7.9,6.1,13,15,14.4,24.9
			c2,14.8,9.6,27.8,20.6,36.8L55.2,449c-2,3.5-1.7,7.9,0.7,11.1c2.5,3.2,6.6,4.6,10.5,3.6l56.3-15.1l15,56c1,3.9,4.3,6.8,8.4,7.3
			c0.4,0.1,0.9,0.1,1.3,0.1c3.5,0,6.9-1.9,8.7-5l69.7-120.7c5.3-0.6,10.5-1.9,15.6-3.9c9.3-3.8,19.5-3.8,28.7,0
			c5.3,2.2,10.8,3.5,16.3,4L356,507c1.8,3.1,5.1,5,8.7,5c0.4,0,0.9,0,1.3-0.1c4-0.5,7.3-3.4,8.4-7.3l15-56l56.3,15.1
			c3.9,1,8.1-0.4,10.5-3.6C458.6,456.8,458.9,452.5,456.8,449L456.8,449z M150.8,476.1l-11.4-42.4c-0.7-2.6-2.4-4.7-4.7-6.1
			s-5-1.7-7.6-1L84.5,438l52.6-91c3.7,1.3,7.6,2.3,11.6,2.8c9.9,1.3,18.7,6.4,24.9,14.4c7.8,10,18.4,16.9,30.1,20.2L150.8,476.1z
			 M233.7,363.9c-15.7,6.4-33.9,1.5-44.3-11.9c-9.4-12.1-22.8-19.9-38-21.9c-16.8-2.3-30.2-15.6-32.5-32.5
			c-2.1-15.1-9.8-28.6-21.9-38c-13.4-10.4-18.3-28.6-11.9-44.3c5.8-14.1,5.8-29.7,0-43.9c-6.4-15.7-1.5-33.9,11.9-44.3
			c12.1-9.4,19.9-22.8,21.9-38c2.3-16.8,15.6-30.2,32.5-32.5c15.1-2.1,28.6-9.8,38-21.9c7.3-9.5,18.6-14.7,30-14.7
			c4.8,0,9.7,0.9,14.3,2.8c14.1,5.8,29.7,5.8,43.9,0c15.7-6.4,33.9-1.5,44.3,11.9c9.4,12.1,22.8,19.9,38,21.9
			c16.8,2.3,30.2,15.6,32.5,32.5c2.1,15.1,9.8,28.6,21.9,38c13.4,10.4,18.3,28.6,11.9,44.3c-5.8,14.1-5.8,29.7,0,43.9
			c6.4,15.7,1.5,33.9-11.9,44.3c-12.1,9.4-19.9,22.8-21.9,38c-2.3,16.8-15.6,30.2-32.5,32.5c-15.1,2.1-28.6,9.8-38,21.9
			c-10.4,13.4-28.6,18.3-44.3,11.9C263.5,358.1,247.9,358.1,233.7,363.9L233.7,363.9z M384.8,426.6c-5.3-1.4-10.8,1.7-12.2,7.1
			l-11.4,42.4l-53-91.8c11.4-3.3,21.9-10.2,29.5-20.1c6.1-7.9,15-13,24.9-14.4c4.2-0.6,8.3-1.6,12.1-3l52.7,91.2L384.8,426.6z"/>
		<path id="XMLID_1191_" class="st0" d="M386,196.7c0-26.6-8-52.1-23-73.9c-14.7-21.3-35.1-37.5-59.1-47c-5.1-2-10.9,0.5-13,5.6
			c-2,5.1,0.5,10.9,5.6,13c42.2,16.7,69.5,56.9,69.5,102.3c0,60.7-49.4,110-110,110s-110-49.4-110-110c0-45.4,27.3-85.6,69.5-102.3
			c5.1-2,7.6-7.8,5.6-13c-2-5.1-7.9-7.6-13-5.6c-23.9,9.5-44.4,25.8-59.1,47c-15.1,21.8-23,47.3-23,73.9c0,71.7,58.3,130,130,130
			S386,268.4,386,196.7L386,196.7z"/>
		<path id="XMLID_1218_" class="st0" d="M256,86.7c2.6,0,5.2-1.1,7.1-2.9c1.9-1.9,2.9-4.4,2.9-7.1c0-2.6-1.1-5.2-2.9-7.1
			c-1.9-1.9-4.4-2.9-7.1-2.9c-2.6,0-5.2,1.1-7.1,2.9S246,74,246,76.7c0,2.6,1.1,5.2,2.9,7.1C250.8,85.6,253.4,86.7,256,86.7z"/>
		<path id="XMLID_2_" class="st0" d="M125.5,196.7c0,26.6,8,52.1,23,73.9c14.7,21.3,35.1,37.5,59.1,47c5.1,2,10.9-0.5,13-5.6
			c2-5.1-0.5-10.9-5.6-13c-42.2-16.7-69.5-56.9-69.5-102.3c0-60.7,49.4-110,110-110s110,49.4,110,110c0,45.4-27.3,85.6-69.5,102.3
			c-5.1,2-7.6,7.8-5.6,13c2,5.1,7.9,7.6,13,5.6c23.9-9.5,44.4-25.8,59.1-47c15.1-21.8,23-47.3,23-73.9c0-71.7-58.3-130-130-130
			C183.8,66.7,125.5,125,125.5,196.7L125.5,196.7z"/>
		<path id="XMLID_1_" class="st0" d="M255.5,306.7c-2.6,0-5.2,1.1-7.1,2.9c-1.9,1.9-2.9,4.4-2.9,7.1c0,2.6,1.1,5.2,2.9,7.1
			c1.9,1.9,4.4,2.9,7.1,2.9c2.6,0,5.2-1.1,7.1-2.9s2.9-4.4,2.9-7.1c0-2.6-1.1-5.2-2.9-7.1C260.7,307.8,258.1,306.7,255.5,306.7z"/>
		<path class="st0" d="M216.3,181.7c-2.8-3.2-7.6-3.6-10.8-0.9c-3.2,2.8-3.6,7.6-0.9,10.8l40.6,47.5c2.7,3.2,7.5,3.6,10.7,1
			l56.3-69.9c3.3-2.7,3.8-7.5,1.1-10.8c-2.7-3.3-7.5-3.8-10.8-1.1L252,223.5L216.3,181.7z"/>
	</g>
</g>
</svg>
