<svg xmlns="http://www.w3.org/2000/svg" width="50" height="64" viewBox="0 0 50 64"><g><g><path fill="#c2c2c2" d="M49.99 14.046v16.39c0 13.912-8.383 26.468-21.267 31.855l-3.67 1.578a1.2 1.2 0 0 1-.956-.001l-3.257-1.413C8.19 56.948.011 44.512-.003 30.767V14.046c0-.438.238-.84.623-1.05L24.082.195a1.205 1.205 0 0 1 1.143-.007l24.13 12.801c.39.208.636.614.636 1.057zm-2.402.716l-22.92-12.16-22.27 12.151v16.014c.014 12.796 7.629 24.37 19.404 29.495l2.776 1.206 3.196-1.373.008-.004c11.997-5.013 19.803-16.702 19.806-29.656zm-26.2 21.739l13.869-11.233a1.206 1.206 0 0 1 1.69.173c.419.513.341 1.266-.174 1.682L21.994 39.094a1.205 1.205 0 0 1-1.67-.15l-6.347-7.4a1.192 1.192 0 0 1 .134-1.686 1.206 1.206 0 0 1 1.694.133z"/></g></g></svg>