<?xml version="1.0" encoding="utf-8"?>
<!-- Generator: Adobe Illustrator 24.3.0, SVG Export Plug-In . SVG Version: 6.00 Build 0)  -->
<svg version="1.1" id="Слой_1" xmlns="http://www.w3.org/2000/svg" xmlns:xlink="http://www.w3.org/1999/xlink" x="0px" y="0px"
	 viewBox="0 0 30 30" style="enable-background:new 0 0 30 30;" xml:space="preserve">
<style type="text/css">
	.st0{fill:#233861;}
</style>
<path class="st0" d="M26.2,25l-5.4-5.4c1.3-1.6,2.1-3.7,2.1-5.9c0-5.1-4.2-9.3-9.3-9.3s-9.3,4.2-9.3,9.3S8.5,23,13.6,23
	c2.2,0,4.3-0.8,5.9-2.1l5.4,5.4c0.2,0.2,0.4,0.3,0.6,0.3s0.4-0.1,0.6-0.3C26.6,25.9,26.6,25.4,26.2,25z M6.2,13.8
	c0-4.2,3.4-7.5,7.5-7.5c4.2,0,7.5,3.4,7.5,7.5s-3.4,7.5-7.5,7.5S6.2,17.9,6.2,13.8z"/>
</svg>
