<?xml version="1.0" encoding="utf-8"?>
<!-- Generator: Adobe Illustrator 24.3.0, SVG Export Plug-In . SVG Version: 6.00 Build 0)  -->
<svg version="1.1" id="Слой_1" xmlns="http://www.w3.org/2000/svg" xmlns:xlink="http://www.w3.org/1999/xlink" x="0px" y="0px"
	 viewBox="0 0 75 77" style="enable-background:new 0 0 75 77;" xml:space="preserve">
<style type="text/css">
	.st0{fill:#BC1818;}
</style>
<path class="st0" d="M33.5,39.9h8.4c0.3,0,0.5-0.1,0.7-0.3c0.2-0.2,0.3-0.5,0.3-0.7s-0.1-0.5-0.3-0.7c-0.2-0.2-0.5-0.3-0.7-0.3h-7.3
	V27.5c0-0.3-0.1-0.5-0.3-0.7c-0.2-0.2-0.5-0.3-0.7-0.3c-0.3,0-0.5,0.1-0.7,0.3c-0.2,0.2-0.3,0.5-0.3,0.7v11.2c0,0.1,0,0.3,0.1,0.4
	c0,0.1,0.1,0.2,0.2,0.3c0.1,0.1,0.2,0.2,0.3,0.2C33.2,39.8,33.4,39.8,33.5,39.9z"/>
<path class="st0" d="M9.9,38.5c0,12.9,10.4,23.4,23.3,23.6c0.1,0,0.1,0,0.2,0c0.1,0,0.1,0,0.1,0c1.7,0,3.4-0.2,5-0.6
	c0.8,2.4,2.1,4.6,4,6.3c1.8,1.7,4.1,2.9,6.5,3.5c2.4,0.6,5,0.5,7.4-0.2c2.4-0.7,4.6-2,6.4-3.8c1.8-1.8,3-4,3.7-6.4
	c0.7-2.4,0.7-5,0-7.4C66,51.1,64.7,48.9,63,47c-1.7-1.8-3.9-3.1-6.3-3.9c0.3-1.6,0.5-3.1,0.5-4.7c0-4.5-1.3-9-3.8-12.8l2.6-2.6
	c0.4-0.4,0.7-1,0.7-1.6s-0.2-1.2-0.7-1.6l-1.8-1.8c-0.4-0.4-1-0.7-1.6-0.7c-0.6,0-1.2,0.2-1.6,0.7l-2.3,2.3
	c-3.4-2.9-7.5-4.7-11.9-5.3v-2.9h1.4c0.3,0,0.6-0.1,0.8-0.2c0.3-0.1,0.5-0.3,0.7-0.5c0.2-0.2,0.4-0.4,0.5-0.7
	c0.1-0.3,0.2-0.6,0.2-0.8V7.5c0-0.3,0-0.6-0.2-0.8c-0.1-0.3-0.3-0.5-0.5-0.7c-0.2-0.2-0.4-0.4-0.7-0.5c-0.3-0.1-0.6-0.2-0.8-0.2
	h-9.5c-0.3,0-0.6,0.1-0.8,0.2c-0.3,0.1-0.5,0.3-0.7,0.5c-0.2,0.2-0.4,0.5-0.5,0.7c-0.1,0.3-0.2,0.6-0.2,0.8V10c0,0.3,0,0.6,0.2,0.8
	c0.1,0.3,0.3,0.5,0.5,0.7c0.2,0.2,0.4,0.4,0.7,0.5c0.3,0.1,0.6,0.2,0.8,0.2h1.4v2.9C18.8,16.7,9.9,26.6,9.9,38.5z M65,57.1
	c0,2.5-0.7,4.9-2.1,6.9c-1.4,2.1-3.3,3.7-5.6,4.6c-2.3,0.9-4.8,1.2-7.2,0.7c-2.4-0.5-4.6-1.7-6.4-3.4c-1.7-1.7-2.9-4-3.4-6.4
	c-0.5-2.4-0.2-4.9,0.7-7.2c0.9-2.3,2.5-4.2,4.6-5.6c2.1-1.4,4.5-2.1,6.9-2.1c3.3,0,6.5,1.3,8.8,3.7C63.6,50.7,65,53.8,65,57.1z
	 M52.5,19.7C52.5,19.6,52.6,19.6,52.5,19.7c0.1,0,0.1,0,0.2,0l1.8,1.8c0,0,0,0,0,0c0,0,0,0,0,0s0,0,0,0c0,0,0,0,0,0l-2.3,2.3
	c-0.6-0.7-1.2-1.4-1.8-2.1L52.5,19.7z M28.8,10.1C28.8,10.1,28.8,10.1,28.8,10.1C28.7,10,28.7,10,28.7,10V7.5c0,0,0-0.1,0-0.1
	c0,0,0.1,0,0.1,0h9.5c0,0,0.1,0,0.1,0c0,0,0,0.1,0,0.1V10c0,0,0,0.1,0,0.1c0,0-0.1,0-0.1,0H28.8z M34.7,12.2v2.7c-0.3,0-0.8,0-1.2,0
	c0,0,0,0-0.1,0c0,0,0,0-0.1,0c0,0-0.1,0-0.1,0c-0.3,0-0.7,0-1,0v-2.7H34.7z M32.3,17v3.2c0,0.3,0.1,0.5,0.3,0.7
	c0.2,0.2,0.5,0.3,0.7,0.3c0.3,0,0.5-0.1,0.7-0.3c0.2-0.2,0.3-0.5,0.3-0.7V17c11.1,0.5,20.1,9.5,20.6,20.6h-3.3
	c-0.3,0-0.5,0.1-0.7,0.3c-0.2,0.2-0.3,0.5-0.3,0.7c0,0.3,0.1,0.5,0.3,0.7c0.2,0.2,0.5,0.3,0.7,0.3H55c-0.1,1-0.2,2-0.4,3
	c-2.3-0.3-4.6-0.1-6.8,0.6c-2.2,0.7-4.1,2-5.8,3.6c-1.6,1.6-2.8,3.6-3.5,5.8c-0.7,2.2-0.9,4.5-0.5,6.8c-1.2,0.3-2.4,0.4-3.6,0.5
	v-3.2c0-0.3-0.1-0.5-0.3-0.7c-0.2-0.2-0.5-0.3-0.7-0.3c-0.3,0-0.5,0.1-0.7,0.3c-0.2,0.2-0.3,0.5-0.3,0.7v3.2
	c-10.8-0.6-19.7-9.4-20.3-20.2h3c0.3,0,0.5-0.1,0.7-0.3c0.2-0.2,0.3-0.5,0.3-0.7c0-0.3-0.1-0.5-0.3-0.7c-0.2-0.2-0.5-0.3-0.7-0.3h-3
	c0.2-5.3,2.4-10.4,6.2-14.2S27,17.3,32.3,17z"/>
<path class="st0" d="M52,47l-8,4.6c-0.2,0.1-0.3,0.2-0.4,0.4c-0.1,0.2-0.1,0.3-0.1,0.5v9.3c0,0.2,0,0.4,0.1,0.5
	c0.1,0.2,0.2,0.3,0.4,0.4l8,4.6c0.2,0.1,0.3,0.1,0.5,0.1c0.2,0,0.4,0,0.5-0.1l8-4.6c0.2-0.1,0.3-0.2,0.4-0.4s0.1-0.3,0.1-0.5v-9.3
	c0-0.2,0-0.4-0.1-0.5c-0.1-0.2-0.2-0.3-0.4-0.4L53,47c-0.2-0.1-0.3-0.1-0.5-0.1C52.3,46.8,52.1,46.9,52,47z M51.4,64.6l-5.9-3.4
	v-6.8l5.9,3.4V64.6z M59.4,61.2l-5.9,3.4v-6.8l5.9-3.4V61.2z M58.4,52.5l-5.9,3.4l-2-1.1l5.9-3.4L58.4,52.5z M54.3,50.1l-5.9,3.4
	l-1.8-1.1l5.9-3.4L54.3,50.1z"/>
</svg>
