<?xml version="1.0" encoding="utf-8"?>
<!-- Generator: Adobe Illustrator 24.3.0, SVG Export Plug-In . SVG Version: 6.00 Build 0)  -->
<svg version="1.1" id="Слой_1" xmlns="http://www.w3.org/2000/svg" xmlns:xlink="http://www.w3.org/1999/xlink" x="0px" y="0px"
	 viewBox="0 0 70.9 70.9" style="enable-background:new 0 0 70.9 70.9;" xml:space="preserve">
<style type="text/css">
	.st0{fill:#9D9D9C;}
</style>
<g>
	<g>
		<path class="st0" d="M67.5,11.9H15.4L15.2,11C15,9,14.1,7.3,12.6,6c-1.4-1.3-3.3-2-5.3-2H4.2v5.3h3.2c0.6,0,1.3,0.2,1.8,0.7
			c0.5,0.4,0.8,1,0.9,1.7l4.2,35.6c0.2,1.9,1.2,3.7,2.6,5c1.4,1.3,3.3,2,5.3,2H57v-5.3H22c-0.6,0-1.3-0.2-1.8-0.7
			c-0.5-0.4-0.8-1-0.9-1.7l-0.3-2.9h42.7L67.5,11.9z M57.4,38.3H18.5L16,17.2h45.2L57.4,38.3z M22.6,56.8c-2.9,0-5.3,2.4-5.3,5.3
			c0,2.9,2.4,5.3,5.3,5.3c2.9,0,5.3-2.4,5.3-5.3C27.9,59.1,25.6,56.8,22.6,56.8z M49,56.8c-2.9,0-5.3,2.4-5.3,5.3
			c0,2.9,2.4,5.3,5.3,5.3c2.9,0,5.3-2.4,5.3-5.3C54.3,59.1,52,56.8,49,56.8z"/>
	</g>
</g>
</svg>
