<svg xmlns="http://www.w3.org/2000/svg" width="25" height="26" viewBox="0 0 25 26"><g><g><path fill="#3ead56" d="M12.662.111c6.627 0 11.999 5.372 11.999 12 0 6.625-5.372 11.998-11.999 11.998-3.013 0-7.305-.864-11.999 1.332 2.694-4 0-9.717 0-13.33 0-6.628 5.372-12 11.999-12z"/></g><g><path fill="#fff" d="M14.676 15.366c-.263-.058-1.668-.909-2.708-1.834-.942-.882-1.649-1.952-1.649-1.952.61-.785.67-2.104.26-3.219-.502-1.332-1.94-2.256-3.34-1.644-1.2.526-1.602 2.512-1.194 3.628.408 1.115 1.653 3.416 3.632 5.398 1.785 1.719 5.7 4.492 7.697 3.79 1.432-.54 1.996-2.339 1.33-3.86-.316-.722-1.623-1.53-2.55-1.47-.797.175-1.344 1.104-1.478 1.163z"/></g></g></svg>